<svg width="45" height="40" viewBox="0 0 45 40" fill="none" xmlns="http://www.w3.org/2000/svg">
<g clip-path="url(#clip0_283_5997)">
<path d="M7.54395 31.3154L5.08301 38H4.45801L7.14355 30.8906H7.57812L7.54395 31.3154ZM9.78027 38L7.31445 31.3154L7.28027 30.8906H7.71484L10.4053 38H9.78027ZM9.34082 35.4902V36.0078H5.56641V35.4902H9.34082ZM13.2715 37.5947C13.5189 37.5947 13.75 37.5492 13.9648 37.458C14.1829 37.3636 14.362 37.2253 14.502 37.043C14.6452 36.8574 14.7266 36.6312 14.7461 36.3643H15.3027C15.2865 36.6995 15.1839 36.999 14.9951 37.2627C14.8096 37.5231 14.5654 37.7282 14.2627 37.8779C13.9632 38.0244 13.6328 38.0977 13.2715 38.0977C12.9036 38.0977 12.5781 38.0309 12.2949 37.8975C12.015 37.764 11.7806 37.5785 11.5918 37.3408C11.403 37.0999 11.2598 36.82 11.1621 36.501C11.0677 36.1787 11.0205 35.832 11.0205 35.4609V35.2559C11.0205 34.8848 11.0677 34.5397 11.1621 34.2207C11.2598 33.8984 11.403 33.6185 11.5918 33.3809C11.7806 33.14 12.015 32.9528 12.2949 32.8193C12.5749 32.6859 12.8988 32.6191 13.2666 32.6191C13.6442 32.6191 13.9827 32.6956 14.2822 32.8486C14.585 33.0016 14.8258 33.2181 15.0049 33.498C15.1872 33.778 15.2865 34.11 15.3027 34.4941H14.7461C14.7298 34.2109 14.6549 33.9668 14.5215 33.7617C14.388 33.5566 14.2122 33.3988 13.9941 33.2881C13.776 33.1774 13.5335 33.1221 13.2666 33.1221C12.9671 33.1221 12.7116 33.1807 12.5 33.2979C12.2884 33.4118 12.1159 33.5697 11.9824 33.7715C11.8522 33.9701 11.7562 34.1979 11.6943 34.4551C11.6325 34.709 11.6016 34.9759 11.6016 35.2559V35.4609C11.6016 35.7441 11.6309 36.0143 11.6895 36.2715C11.7513 36.5254 11.8473 36.7516 11.9775 36.9502C12.111 37.1488 12.2835 37.3066 12.4951 37.4238C12.71 37.5378 12.9688 37.5947 13.2715 37.5947ZM18.4277 37.5947C18.6751 37.5947 18.9062 37.5492 19.1211 37.458C19.3392 37.3636 19.5182 37.2253 19.6582 37.043C19.8014 36.8574 19.8828 36.6312 19.9023 36.3643H20.459C20.4427 36.6995 20.3402 36.999 20.1514 37.2627C19.9658 37.5231 19.7217 37.7282 19.4189 37.8779C19.1195 38.0244 18.7891 38.0977 18.4277 38.0977C18.0599 38.0977 17.7344 38.0309 17.4512 37.8975C17.1712 37.764 16.9368 37.5785 16.748 37.3408C16.5592 37.0999 16.416 36.82 16.3184 36.501C16.224 36.1787 16.1768 35.832 16.1768 35.4609V35.2559C16.1768 34.8848 16.224 34.5397 16.3184 34.2207C16.416 33.8984 16.5592 33.6185 16.748 33.3809C16.9368 33.14 17.1712 32.9528 17.4512 32.8193C17.7311 32.6859 18.055 32.6191 18.4229 32.6191C18.8005 32.6191 19.139 32.6956 19.4385 32.8486C19.7412 33.0016 19.9821 33.2181 20.1611 33.498C20.3434 33.778 20.4427 34.11 20.459 34.4941H19.9023C19.8861 34.2109 19.8112 33.9668 19.6777 33.7617C19.5443 33.5566 19.3685 33.3988 19.1504 33.2881C18.9323 33.1774 18.6898 33.1221 18.4229 33.1221C18.1234 33.1221 17.8678 33.1807 17.6562 33.2979C17.4447 33.4118 17.2721 33.5697 17.1387 33.7715C17.0085 33.9701 16.9124 34.1979 16.8506 34.4551C16.7887 34.709 16.7578 34.9759 16.7578 35.2559V35.4609C16.7578 35.7441 16.7871 36.0143 16.8457 36.2715C16.9076 36.5254 17.0036 36.7516 17.1338 36.9502C17.2673 37.1488 17.4398 37.3066 17.6514 37.4238C17.8662 37.5378 18.125 37.5947 18.4277 37.5947ZM21.3135 35.4414V35.2803C21.3135 34.8962 21.3688 34.5413 21.4795 34.2158C21.5902 33.8903 21.748 33.6087 21.9531 33.3711C22.1615 33.1335 22.4105 32.9495 22.7002 32.8193C22.9899 32.6859 23.3122 32.6191 23.667 32.6191C24.0251 32.6191 24.349 32.6859 24.6387 32.8193C24.9284 32.9495 25.1774 33.1335 25.3857 33.3711C25.5941 33.6087 25.7536 33.8903 25.8643 34.2158C25.9749 34.5413 26.0303 34.8962 26.0303 35.2803V35.4414C26.0303 35.8255 25.9749 36.1803 25.8643 36.5059C25.7536 36.8281 25.5941 37.1081 25.3857 37.3457C25.1807 37.5833 24.9333 37.7689 24.6436 37.9023C24.3538 38.0326 24.0316 38.0977 23.6768 38.0977C23.3187 38.0977 22.9948 38.0326 22.7051 37.9023C22.4154 37.7689 22.1663 37.5833 21.958 37.3457C21.7497 37.1081 21.5902 36.8281 21.4795 36.5059C21.3688 36.1803 21.3135 35.8255 21.3135 35.4414ZM21.8945 35.2803V35.4414C21.8945 35.7311 21.9336 36.0062 22.0117 36.2666C22.0898 36.5238 22.2038 36.7533 22.3535 36.9551C22.5033 37.1536 22.6888 37.3099 22.9102 37.4238C23.1315 37.5378 23.387 37.5947 23.6768 37.5947C23.9632 37.5947 24.2155 37.5378 24.4336 37.4238C24.6549 37.3099 24.8405 37.1536 24.9902 36.9551C25.14 36.7533 25.2523 36.5238 25.3271 36.2666C25.4053 36.0062 25.4443 35.7311 25.4443 35.4414V35.2803C25.4443 34.9938 25.4053 34.722 25.3271 34.4648C25.2523 34.2077 25.1383 33.9782 24.9854 33.7764C24.8356 33.5745 24.6501 33.415 24.4287 33.2979C24.2074 33.1807 23.9535 33.1221 23.667 33.1221C23.3805 33.1221 23.1266 33.1807 22.9053 33.2979C22.6872 33.415 22.5016 33.5745 22.3486 33.7764C22.1989 33.9782 22.085 34.2077 22.0068 34.4648C21.932 34.722 21.8945 34.9938 21.8945 35.2803ZM30.625 36.7793V32.7168H31.2109V38H30.6494L30.625 36.7793ZM30.7324 35.8027L31.0352 35.793C31.0352 36.125 30.9961 36.431 30.918 36.7109C30.8398 36.9909 30.7178 37.235 30.5518 37.4434C30.3857 37.6517 30.1709 37.8128 29.9072 37.9268C29.6436 38.0407 29.3262 38.0977 28.9551 38.0977C28.6979 38.0977 28.4619 38.0618 28.2471 37.9902C28.0355 37.9154 27.8532 37.7982 27.7002 37.6387C27.5472 37.4792 27.4284 37.2725 27.3438 37.0186C27.2624 36.7646 27.2217 36.457 27.2217 36.0957V32.7168H27.8027V36.1055C27.8027 36.3887 27.8337 36.6247 27.8955 36.8135C27.9606 37.0023 28.0485 37.1536 28.1592 37.2676C28.2731 37.3815 28.4033 37.4629 28.5498 37.5117C28.6963 37.5605 28.8542 37.585 29.0234 37.585C29.4531 37.585 29.7917 37.502 30.0391 37.3359C30.2897 37.1699 30.4671 36.9518 30.5713 36.6816C30.6787 36.4082 30.7324 36.1152 30.7324 35.8027ZM33.3203 33.8447V38H32.7393V32.7168H33.2959L33.3203 33.8447ZM33.1885 35.0312L32.9297 34.8848C32.9492 34.5723 33.0127 34.2793 33.1201 34.0059C33.2275 33.7324 33.3724 33.4915 33.5547 33.2832C33.7402 33.0749 33.9567 32.9121 34.2041 32.7949C34.4548 32.6777 34.7314 32.6191 35.0342 32.6191C35.2979 32.6191 35.5339 32.6549 35.7422 32.7266C35.9505 32.7982 36.1279 32.9121 36.2744 33.0684C36.4209 33.2246 36.5316 33.4248 36.6064 33.6689C36.6846 33.9131 36.7236 34.2109 36.7236 34.5625V38H36.1377V34.5576C36.1377 34.193 36.0872 33.9082 35.9863 33.7031C35.8854 33.4948 35.7422 33.3467 35.5566 33.2588C35.3711 33.1709 35.1514 33.127 34.8975 33.127C34.6175 33.127 34.3717 33.1888 34.1602 33.3125C33.9518 33.4329 33.776 33.5908 33.6328 33.7861C33.4928 33.9782 33.3854 34.1849 33.3105 34.4062C33.2357 34.6243 33.195 34.8327 33.1885 35.0312ZM40.2344 32.7168V33.1953H37.5879V32.7168H40.2344ZM38.5596 31.3594H39.1406V36.7158C39.1406 36.96 39.1732 37.1439 39.2383 37.2676C39.3034 37.3913 39.388 37.4743 39.4922 37.5166C39.5964 37.5589 39.7087 37.5801 39.8291 37.5801C39.917 37.5801 40.0016 37.5752 40.083 37.5654C40.1644 37.5524 40.2376 37.5394 40.3027 37.5264L40.3271 38.0195C40.2555 38.0423 40.1628 38.0602 40.0488 38.0732C39.9349 38.0895 39.821 38.0977 39.707 38.0977C39.4824 38.0977 39.2839 38.057 39.1113 37.9756C38.9388 37.891 38.8037 37.7477 38.7061 37.5459C38.6084 37.3408 38.5596 37.0625 38.5596 36.7109V31.3594Z" fill="white"/>
<path d="M22.1737 10.7771C22.0654 10.7663 21.9354 10.7663 21.8162 10.7771C19.2379 10.6905 17.1904 8.57797 17.1904 5.97797C17.1904 3.3238 19.3354 1.16797 22.0004 1.16797C24.6545 1.16797 26.8104 3.3238 26.8104 5.97797C26.7995 8.57797 24.752 10.6905 22.1737 10.7771Z" stroke="white" stroke-width="0.590909" stroke-linecap="round" stroke-linejoin="round"/>
<path d="M16.7573 14.772C14.1356 16.527 14.1356 19.387 16.7573 21.1312C19.7364 23.1245 24.6223 23.1245 27.6014 21.1312C30.2231 19.3762 30.2231 16.5162 27.6014 14.772C24.6331 12.7895 19.7473 12.7895 16.7573 14.772Z" stroke="white" stroke-width="0.590909" stroke-linecap="round" stroke-linejoin="round"/>
</g>
<defs>
<clipPath id="clip0_283_5997">
<rect width="45" height="40" fill="none"/>
</clipPath>
</defs>
</svg>
