<svg width="46" height="40" viewBox="0 0 46 40" fill="none" xmlns="http://www.w3.org/2000/svg">
<g clip-path="url(#clip0_521_4026)">
<path d="M8.04395 31.3154L5.58301 38H4.95801L7.64355 30.8906H8.07812L8.04395 31.3154ZM10.2803 38L7.81445 31.3154L7.78027 30.8906H8.21484L10.9053 38H10.2803ZM9.84082 35.4902V36.0078H6.06641V35.4902H9.84082ZM13.7715 37.5947C14.0189 37.5947 14.25 37.5492 14.4648 37.458C14.6829 37.3636 14.862 37.2253 15.002 37.043C15.1452 36.8574 15.2266 36.6312 15.2461 36.3643H15.8027C15.7865 36.6995 15.6839 36.999 15.4951 37.2627C15.3096 37.5231 15.0654 37.7282 14.7627 37.8779C14.4632 38.0244 14.1328 38.0977 13.7715 38.0977C13.4036 38.0977 13.0781 38.0309 12.7949 37.8975C12.515 37.764 12.2806 37.5785 12.0918 37.3408C11.903 37.0999 11.7598 36.82 11.6621 36.501C11.5677 36.1787 11.5205 35.832 11.5205 35.4609V35.2559C11.5205 34.8848 11.5677 34.5397 11.6621 34.2207C11.7598 33.8984 11.903 33.6185 12.0918 33.3809C12.2806 33.14 12.515 32.9528 12.7949 32.8193C13.0749 32.6859 13.3988 32.6191 13.7666 32.6191C14.1442 32.6191 14.4827 32.6956 14.7822 32.8486C15.085 33.0016 15.3258 33.2181 15.5049 33.498C15.6872 33.778 15.7865 34.11 15.8027 34.4941H15.2461C15.2298 34.2109 15.1549 33.9668 15.0215 33.7617C14.888 33.5566 14.7122 33.3988 14.4941 33.2881C14.276 33.1774 14.0335 33.1221 13.7666 33.1221C13.4671 33.1221 13.2116 33.1807 13 33.2979C12.7884 33.4118 12.6159 33.5697 12.4824 33.7715C12.3522 33.9701 12.2562 34.1979 12.1943 34.4551C12.1325 34.709 12.1016 34.9759 12.1016 35.2559V35.4609C12.1016 35.7441 12.1309 36.0143 12.1895 36.2715C12.2513 36.5254 12.3473 36.7516 12.4775 36.9502C12.611 37.1488 12.7835 37.3066 12.9951 37.4238C13.21 37.5378 13.4688 37.5947 13.7715 37.5947ZM18.9277 37.5947C19.1751 37.5947 19.4062 37.5492 19.6211 37.458C19.8392 37.3636 20.0182 37.2253 20.1582 37.043C20.3014 36.8574 20.3828 36.6312 20.4023 36.3643H20.959C20.9427 36.6995 20.8402 36.999 20.6514 37.2627C20.4658 37.5231 20.2217 37.7282 19.9189 37.8779C19.6195 38.0244 19.2891 38.0977 18.9277 38.0977C18.5599 38.0977 18.2344 38.0309 17.9512 37.8975C17.6712 37.764 17.4368 37.5785 17.248 37.3408C17.0592 37.0999 16.916 36.82 16.8184 36.501C16.724 36.1787 16.6768 35.832 16.6768 35.4609V35.2559C16.6768 34.8848 16.724 34.5397 16.8184 34.2207C16.916 33.8984 17.0592 33.6185 17.248 33.3809C17.4368 33.14 17.6712 32.9528 17.9512 32.8193C18.2311 32.6859 18.555 32.6191 18.9229 32.6191C19.3005 32.6191 19.639 32.6956 19.9385 32.8486C20.2412 33.0016 20.4821 33.2181 20.6611 33.498C20.8434 33.778 20.9427 34.11 20.959 34.4941H20.4023C20.3861 34.2109 20.3112 33.9668 20.1777 33.7617C20.0443 33.5566 19.8685 33.3988 19.6504 33.2881C19.4323 33.1774 19.1898 33.1221 18.9229 33.1221C18.6234 33.1221 18.3678 33.1807 18.1562 33.2979C17.9447 33.4118 17.7721 33.5697 17.6387 33.7715C17.5085 33.9701 17.4124 34.1979 17.3506 34.4551C17.2887 34.709 17.2578 34.9759 17.2578 35.2559V35.4609C17.2578 35.7441 17.2871 36.0143 17.3457 36.2715C17.4076 36.5254 17.5036 36.7516 17.6338 36.9502C17.7673 37.1488 17.9398 37.3066 18.1514 37.4238C18.3662 37.5378 18.625 37.5947 18.9277 37.5947ZM21.8135 35.4414V35.2803C21.8135 34.8962 21.8688 34.5413 21.9795 34.2158C22.0902 33.8903 22.248 33.6087 22.4531 33.3711C22.6615 33.1335 22.9105 32.9495 23.2002 32.8193C23.4899 32.6859 23.8122 32.6191 24.167 32.6191C24.5251 32.6191 24.849 32.6859 25.1387 32.8193C25.4284 32.9495 25.6774 33.1335 25.8857 33.3711C26.0941 33.6087 26.2536 33.8903 26.3643 34.2158C26.4749 34.5413 26.5303 34.8962 26.5303 35.2803V35.4414C26.5303 35.8255 26.4749 36.1803 26.3643 36.5059C26.2536 36.8281 26.0941 37.1081 25.8857 37.3457C25.6807 37.5833 25.4333 37.7689 25.1436 37.9023C24.8538 38.0326 24.5316 38.0977 24.1768 38.0977C23.8187 38.0977 23.4948 38.0326 23.2051 37.9023C22.9154 37.7689 22.6663 37.5833 22.458 37.3457C22.2497 37.1081 22.0902 36.8281 21.9795 36.5059C21.8688 36.1803 21.8135 35.8255 21.8135 35.4414ZM22.3945 35.2803V35.4414C22.3945 35.7311 22.4336 36.0062 22.5117 36.2666C22.5898 36.5238 22.7038 36.7533 22.8535 36.9551C23.0033 37.1536 23.1888 37.3099 23.4102 37.4238C23.6315 37.5378 23.887 37.5947 24.1768 37.5947C24.4632 37.5947 24.7155 37.5378 24.9336 37.4238C25.1549 37.3099 25.3405 37.1536 25.4902 36.9551C25.64 36.7533 25.7523 36.5238 25.8271 36.2666C25.9053 36.0062 25.9443 35.7311 25.9443 35.4414V35.2803C25.9443 34.9938 25.9053 34.722 25.8271 34.4648C25.7523 34.2077 25.6383 33.9782 25.4854 33.7764C25.3356 33.5745 25.1501 33.415 24.9287 33.2979C24.7074 33.1807 24.4535 33.1221 24.167 33.1221C23.8805 33.1221 23.6266 33.1807 23.4053 33.2979C23.1872 33.415 23.0016 33.5745 22.8486 33.7764C22.6989 33.9782 22.585 34.2077 22.5068 34.4648C22.432 34.722 22.3945 34.9938 22.3945 35.2803ZM31.125 36.7793V32.7168H31.7109V38H31.1494L31.125 36.7793ZM31.2324 35.8027L31.5352 35.793C31.5352 36.125 31.4961 36.431 31.418 36.7109C31.3398 36.9909 31.2178 37.235 31.0518 37.4434C30.8857 37.6517 30.6709 37.8128 30.4072 37.9268C30.1436 38.0407 29.8262 38.0977 29.4551 38.0977C29.1979 38.0977 28.9619 38.0618 28.7471 37.9902C28.5355 37.9154 28.3532 37.7982 28.2002 37.6387C28.0472 37.4792 27.9284 37.2725 27.8438 37.0186C27.7624 36.7646 27.7217 36.457 27.7217 36.0957V32.7168H28.3027V36.1055C28.3027 36.3887 28.3337 36.6247 28.3955 36.8135C28.4606 37.0023 28.5485 37.1536 28.6592 37.2676C28.7731 37.3815 28.9033 37.4629 29.0498 37.5117C29.1963 37.5605 29.3542 37.585 29.5234 37.585C29.9531 37.585 30.2917 37.502 30.5391 37.3359C30.7897 37.1699 30.9671 36.9518 31.0713 36.6816C31.1787 36.4082 31.2324 36.1152 31.2324 35.8027ZM33.8203 33.8447V38H33.2393V32.7168H33.7959L33.8203 33.8447ZM33.6885 35.0312L33.4297 34.8848C33.4492 34.5723 33.5127 34.2793 33.6201 34.0059C33.7275 33.7324 33.8724 33.4915 34.0547 33.2832C34.2402 33.0749 34.4567 32.9121 34.7041 32.7949C34.9548 32.6777 35.2314 32.6191 35.5342 32.6191C35.7979 32.6191 36.0339 32.6549 36.2422 32.7266C36.4505 32.7982 36.6279 32.9121 36.7744 33.0684C36.9209 33.2246 37.0316 33.4248 37.1064 33.6689C37.1846 33.9131 37.2236 34.2109 37.2236 34.5625V38H36.6377V34.5576C36.6377 34.193 36.5872 33.9082 36.4863 33.7031C36.3854 33.4948 36.2422 33.3467 36.0566 33.2588C35.8711 33.1709 35.6514 33.127 35.3975 33.127C35.1175 33.127 34.8717 33.1888 34.6602 33.3125C34.4518 33.4329 34.276 33.5908 34.1328 33.7861C33.9928 33.9782 33.8854 34.1849 33.8105 34.4062C33.7357 34.6243 33.695 34.8327 33.6885 35.0312ZM40.7344 32.7168V33.1953H38.0879V32.7168H40.7344ZM39.0596 31.3594H39.6406V36.7158C39.6406 36.96 39.6732 37.1439 39.7383 37.2676C39.8034 37.3913 39.888 37.4743 39.9922 37.5166C40.0964 37.5589 40.2087 37.5801 40.3291 37.5801C40.417 37.5801 40.5016 37.5752 40.583 37.5654C40.6644 37.5524 40.7376 37.5394 40.8027 37.5264L40.8271 38.0195C40.7555 38.0423 40.6628 38.0602 40.5488 38.0732C40.4349 38.0895 40.321 38.0977 40.207 38.0977C39.9824 38.0977 39.7839 38.057 39.6113 37.9756C39.4388 37.891 39.3037 37.7477 39.2061 37.5459C39.1084 37.3408 39.0596 37.0625 39.0596 36.7109V31.3594Z" fill="#E50914"/>
<path d="M22.6737 10.7771C22.5654 10.7663 22.4354 10.7663 22.3162 10.7771C19.7379 10.6905 17.6904 8.57797 17.6904 5.97797C17.6904 3.3238 19.8354 1.16797 22.5004 1.16797C25.1545 1.16797 27.3104 3.3238 27.3104 5.97797C27.2995 8.57797 25.252 10.6905 22.6737 10.7771Z" stroke="#E50914" stroke-width="0.590909" stroke-linecap="round" stroke-linejoin="round"/>
<path d="M17.2573 14.772C14.6356 16.527 14.6356 19.387 17.2573 21.1312C20.2364 23.1245 25.1223 23.1245 28.1014 21.1312C30.7231 19.3762 30.7231 16.5162 28.1014 14.772C25.1331 12.7895 20.2473 12.7895 17.2573 14.772Z" stroke="#E50914" stroke-width="0.590909" stroke-linecap="round" stroke-linejoin="round"/>
</g>
<defs>
<clipPath id="clip0_521_4026">
<rect width="45" height="40" fill="white" transform="translate(0.5)"/>
</clipPath>
</defs>
</svg>
