<svg width="62" height="69" viewBox="0 0 62 69" fill="none" xmlns="http://www.w3.org/2000/svg">
<g clip-path="url(#clip0_17_3977)">
<path d="M32.4997 14.5127C29.875 14.5127 27.2759 15.0297 24.851 16.0341C22.426 17.0386 20.2226 18.5108 18.3666 20.3668C16.5106 22.2228 15.0384 24.4262 14.0339 26.8511C13.0295 29.2761 12.5125 31.8752 12.5125 34.4999C12.5125 37.1247 13.0295 39.7237 14.0339 42.1487C15.0384 44.5737 16.5106 46.777 18.3666 48.633C20.2226 50.489 22.426 51.9612 24.851 52.9657C27.2759 53.9701 29.875 54.4871 32.4997 54.4871C35.1245 54.4871 37.7235 53.9701 40.1485 52.9657C42.5735 51.9612 44.7768 50.489 46.6328 48.633C48.4888 46.777 49.9611 44.5737 50.9655 42.1487C51.97 39.7237 52.4869 37.1247 52.4869 34.4999C52.4869 31.8752 51.97 29.2761 50.9655 26.8511C49.9611 24.4262 48.4888 22.2228 46.6328 20.3668C44.7768 18.5108 42.5735 17.0386 40.1485 16.0341C37.7235 15.0297 35.1245 14.5127 32.4997 14.5127Z" fill="#4CB6AC"/>
<path d="M52.7562 31.3782C52.7121 31.0984 52.4507 30.9067 52.1709 30.9498C51.8911 30.9928 51.6984 31.2542 51.7435 31.535C52.6977 37.6604 50.6631 43.9189 46.3018 48.2772C38.6995 55.8744 26.33 55.8744 18.7277 48.2772C11.1253 40.681 11.1253 28.3197 18.7277 20.7225C26.33 13.1263 38.6995 13.1263 46.3018 20.7225C47.0993 21.5199 47.8321 22.4055 48.5424 23.4295C48.7044 23.6621 49.0232 23.7206 49.2569 23.5586C49.4875 23.3997 49.5469 23.0789 49.386 22.8452C48.6398 21.77 47.868 20.8383 47.0265 19.9978C39.0244 12.0019 26.004 12.0009 18.0009 19.9978C9.99887 27.9947 9.99887 41.0059 18.0009 49.0028C26.003 56.9988 39.0234 56.9998 47.0265 49.0028C51.6194 44.414 53.7617 37.8254 52.7562 31.3782Z" fill="black"/>
<path d="M50.5074 27.1155C50.615 27.3779 50.9154 27.503 51.1767 27.3954C51.4371 27.2888 51.5642 26.9895 51.4555 26.7271C51.1327 25.9419 50.8313 25.2972 50.5064 24.7007C50.3711 24.4516 50.0595 24.3604 49.8104 24.4957C49.7664 24.5193 49.7264 24.55 49.6926 24.5838C49.5357 24.7407 49.4937 24.9866 49.6044 25.1916C49.9129 25.7544 50.1999 26.3663 50.5074 27.1155Z" fill="black"/>
<path d="M22.6901 32.7283C22.217 32.7283 21.7723 32.9125 21.4377 33.2471C21.103 33.5817 20.9188 34.0265 20.9188 34.4995C20.9188 34.9726 21.103 35.4173 21.4377 35.7519L29.0677 43.3819C29.4023 43.7166 29.847 43.9008 30.3201 43.9008V44.3095L30.3539 43.9008C30.8389 43.891 31.3011 43.6817 31.6259 43.3274L43.6159 30.2474C43.9353 29.8986 44.0999 29.4463 44.0802 28.9732C44.0595 28.5002 43.8557 28.0653 43.508 27.7448C43.1581 27.4254 42.7145 27.2543 42.2338 27.2804C41.7618 27.3012 41.3258 27.5039 41.0064 27.8527L30.2656 39.5691L23.9436 33.2471C23.6079 32.9125 23.1631 32.7283 22.6901 32.7283Z" fill="white"/>
<path d="M42.3097 27.6876C42.6509 27.6876 42.9779 27.8151 43.2308 28.0462C43.4989 28.2926 43.6548 28.6272 43.6712 28.9913C43.6864 29.3553 43.56 29.703 43.3136 29.9712L31.3236 43.0512C31.074 43.3237 30.7187 43.485 30.3197 43.4926C29.9557 43.4926 29.6134 43.3509 29.3562 43.0937L21.7262 35.4637C21.4689 35.2064 21.3272 34.8642 21.3272 34.5001C21.3272 34.1361 21.4689 33.7938 21.7273 33.5366C21.9834 33.2793 22.3257 33.1376 22.6897 33.1376C23.0538 33.1376 23.3961 33.2793 23.6533 33.5366L29.6734 39.5566L30.2772 40.1605L30.8538 39.5316L41.3058 28.1291C41.5664 27.8446 41.9228 27.6876 42.3097 27.6876ZM42.3097 26.8701C41.7201 26.8701 41.1325 27.1077 40.7031 27.5775L30.2511 38.9789L24.231 32.9589C23.8059 32.5327 23.2478 32.3201 22.6897 32.3201C22.1317 32.3201 21.5736 32.5327 21.1485 32.9589C20.2972 33.8101 20.2972 35.1901 21.1485 36.0414L28.7785 43.6714C29.1872 44.0812 29.742 44.3101 30.3197 44.3101C30.3361 44.3101 30.3513 44.3101 30.3666 44.3101C30.9607 44.297 31.5242 44.042 31.9264 43.6038L43.9164 30.5238C44.7306 29.6365 44.6696 28.2566 43.7823 27.4435C43.3638 27.0598 42.8362 26.8701 42.3097 26.8701Z" fill="black"/>
<path d="M57.4999 8V13" stroke="black" stroke-miterlimit="10" stroke-linecap="round"/>
<path d="M59.9999 10.5H54.9999" stroke="black" stroke-miterlimit="10" stroke-linecap="round"/>
<path d="M50.4999 3V8" stroke="black" stroke-miterlimit="10" stroke-linecap="round"/>
<path d="M52.9999 5.5H47.9999" stroke="black" stroke-miterlimit="10" stroke-linecap="round"/>
<circle cx="32.5" cy="34.5" r="25" stroke="black"/>
<path d="M6.67171 48.4117C9.55356 53.4032 13.82 57.4527 18.955 60.0704C24.09 62.688 29.8734 63.7617 35.6058 63.1615C41.3381 62.5613 46.7738 60.3129 51.2551 56.6883C55.7365 53.0638 59.0716 48.2183 60.857 42.7382" stroke="black" stroke-linecap="round" stroke-dasharray="2.15 4.3 6.45 8.6"/>
</g>
<defs>
<clipPath id="clip0_17_3977">
<rect width="62" height="69" fill="white"/>
</clipPath>
</defs>
</svg>
