<svg width="28" height="40" viewBox="0 0 28 40" fill="none" xmlns="http://www.w3.org/2000/svg">
<g clip-path="url(#clip0_283_6009)">
<path d="M6.31934 34.0791V34.5918H1.99805V34.0791H6.31934ZM2.13965 30.8906V38H1.53906V30.8906H2.13965ZM6.80273 30.8906V38H6.20215V30.8906H6.80273ZM8.16016 35.4414V35.2803C8.16016 34.8962 8.21549 34.5413 8.32617 34.2158C8.43685 33.8903 8.59473 33.6087 8.7998 33.3711C9.00814 33.1335 9.25716 32.9495 9.54688 32.8193C9.83659 32.6859 10.1589 32.6191 10.5137 32.6191C10.8717 32.6191 11.1956 32.6859 11.4854 32.8193C11.7751 32.9495 12.0241 33.1335 12.2324 33.3711C12.4408 33.6087 12.6003 33.8903 12.7109 34.2158C12.8216 34.5413 12.877 34.8962 12.877 35.2803V35.4414C12.877 35.8255 12.8216 36.1803 12.7109 36.5059C12.6003 36.8281 12.4408 37.1081 12.2324 37.3457C12.0273 37.5833 11.7799 37.7689 11.4902 37.9023C11.2005 38.0326 10.8783 38.0977 10.5234 38.0977C10.1654 38.0977 9.84147 38.0326 9.55176 37.9023C9.26204 37.7689 9.01302 37.5833 8.80469 37.3457C8.59635 37.1081 8.43685 36.8281 8.32617 36.5059C8.21549 36.1803 8.16016 35.8255 8.16016 35.4414ZM8.74121 35.2803V35.4414C8.74121 35.7311 8.78027 36.0062 8.8584 36.2666C8.93652 36.5238 9.05046 36.7533 9.2002 36.9551C9.34993 37.1536 9.53548 37.3099 9.75684 37.4238C9.97819 37.5378 10.2337 37.5947 10.5234 37.5947C10.8099 37.5947 11.0622 37.5378 11.2803 37.4238C11.5016 37.3099 11.6872 37.1536 11.8369 36.9551C11.9867 36.7533 12.099 36.5238 12.1738 36.2666C12.252 36.0062 12.291 35.7311 12.291 35.4414V35.2803C12.291 34.9938 12.252 34.722 12.1738 34.4648C12.099 34.2077 11.985 33.9782 11.832 33.7764C11.6823 33.5745 11.4967 33.415 11.2754 33.2979C11.054 33.1807 10.8001 33.1221 10.5137 33.1221C10.2272 33.1221 9.97331 33.1807 9.75195 33.2979C9.53385 33.415 9.34831 33.5745 9.19531 33.7764C9.04557 33.9782 8.93164 34.2077 8.85352 34.4648C8.77865 34.722 8.74121 34.9938 8.74121 35.2803ZM14.6396 33.8105V38H14.0537V32.7168H14.6152L14.6396 33.8105ZM14.5322 35.0312L14.249 34.8848C14.2686 34.5723 14.3271 34.2793 14.4248 34.0059C14.5257 33.7324 14.6657 33.4915 14.8447 33.2832C15.0238 33.0749 15.2386 32.9121 15.4893 32.7949C15.7399 32.6777 16.0247 32.6191 16.3438 32.6191C16.6009 32.6191 16.8337 32.6549 17.042 32.7266C17.2536 32.7949 17.4326 32.904 17.5791 33.0537C17.7288 33.2002 17.8444 33.3923 17.9258 33.6299C18.0072 33.8675 18.0479 34.1523 18.0479 34.4844V38H17.4668V34.5039C17.4668 34.1523 17.4115 33.8773 17.3008 33.6787C17.1934 33.4801 17.042 33.3385 16.8467 33.2539C16.6546 33.1693 16.4316 33.127 16.1777 33.127C15.8783 33.127 15.6243 33.1888 15.416 33.3125C15.2109 33.4329 15.0433 33.5908 14.9131 33.7861C14.7861 33.9782 14.6917 34.1849 14.6299 34.4062C14.568 34.6243 14.5355 34.8327 14.5322 35.0312ZM18.043 34.5723L17.6523 34.582C17.6686 34.3249 17.7272 34.0791 17.8281 33.8447C17.9323 33.6104 18.0739 33.402 18.2529 33.2197C18.432 33.0342 18.6452 32.8877 18.8926 32.7803C19.1432 32.6729 19.4248 32.6191 19.7373 32.6191C20.0107 32.6191 20.2549 32.6566 20.4697 32.7314C20.6846 32.8031 20.8652 32.9186 21.0117 33.0781C21.1615 33.2344 21.2754 33.4346 21.3535 33.6787C21.4316 33.9229 21.4707 34.2158 21.4707 34.5576V38H20.8848V34.5527C20.8848 34.1784 20.8294 33.8887 20.7188 33.6836C20.6113 33.4753 20.4616 33.3304 20.2695 33.249C20.0775 33.1676 19.8529 33.127 19.5957 33.127C19.3418 33.1302 19.1188 33.1774 18.9268 33.2686C18.7347 33.3564 18.5736 33.4736 18.4434 33.6201C18.3164 33.7633 18.2188 33.918 18.1504 34.084C18.0853 34.25 18.0495 34.4128 18.043 34.5723ZM24.9961 38.0977C24.651 38.0977 24.3337 38.0342 24.0439 37.9072C23.7575 37.7803 23.5068 37.6012 23.292 37.3701C23.0804 37.139 22.916 36.8656 22.7988 36.5498C22.6849 36.2308 22.6279 35.8825 22.6279 35.5049V35.2949C22.6279 34.888 22.6882 34.5202 22.8086 34.1914C22.929 33.8626 23.0951 33.5811 23.3066 33.3467C23.5182 33.1123 23.7591 32.9333 24.0293 32.8096C24.3027 32.6826 24.5892 32.6191 24.8887 32.6191C25.224 32.6191 25.5218 32.6794 25.7822 32.7998C26.0426 32.917 26.2607 33.0846 26.4365 33.3027C26.6156 33.5176 26.7507 33.7731 26.8418 34.0693C26.9329 34.3623 26.9785 34.6862 26.9785 35.041V35.3975H22.9795V34.8994H26.3975V34.8311C26.391 34.5348 26.3307 34.2581 26.2168 34.001C26.1061 33.7406 25.9401 33.529 25.7188 33.3662C25.4974 33.2035 25.2207 33.1221 24.8887 33.1221C24.6413 33.1221 24.4134 33.1742 24.2051 33.2783C24 33.3825 23.8226 33.5322 23.6729 33.7275C23.5264 33.9196 23.4124 34.1491 23.3311 34.416C23.2529 34.6797 23.2139 34.9727 23.2139 35.2949V35.5049C23.2139 35.7979 23.2562 36.0713 23.3408 36.3252C23.4287 36.5758 23.5524 36.7972 23.7119 36.9893C23.8747 37.1813 24.0667 37.3311 24.2881 37.4385C24.5094 37.5459 24.7536 37.5996 25.0205 37.5996C25.333 37.5996 25.6097 37.5426 25.8506 37.4287C26.0915 37.3115 26.3079 37.1276 26.5 36.877L26.8662 37.1602C26.7523 37.3294 26.609 37.4857 26.4365 37.6289C26.2673 37.7721 26.0638 37.8861 25.8262 37.9707C25.5885 38.0553 25.3118 38.0977 24.9961 38.0977Z" fill="#E50914"/>
<path fill-rule="evenodd" clip-rule="evenodd" d="M3 7.7L12.9 0L22.8 7.7V19.8C22.8 21.015 21.815 22 20.6 22H5.2C3.98497 22 3 21.015 3 19.8V7.7Z" stroke="#E50914" stroke-width="0.5" stroke-linecap="round" stroke-linejoin="round"/>
<path d="M9.59998 22V11H16.2V22" stroke="#E50914" stroke-width="0.5" stroke-linecap="round" stroke-linejoin="round"/>
</g>
<defs>
<clipPath id="clip0_283_6009">
<rect width="27" height="40" fill="white" transform="translate(0.5)"/>
</clipPath>
</defs>
</svg>
