<svg width="72" height="72" viewBox="0 0 72 72" fill="none" xmlns="http://www.w3.org/2000/svg">
<path d="M1.32314 36.6211C0.979411 36.6211 0.700439 36.343 0.700439 36.0004C0.700439 16.4921 16.623 0.621094 36.1946 0.621094C36.5384 0.621094 36.8173 0.899163 36.8173 1.24178C36.8173 1.5844 36.5384 1.86247 36.1946 1.86247C17.3092 1.86247 1.94585 17.1761 1.94585 36.0004C1.94585 36.343 1.66688 36.6211 1.32314 36.6211Z" fill="#263238"/>
<path d="M39.9309 1.86247H38.6854C38.3417 1.86247 38.0627 1.5844 38.0627 1.24178C38.0627 0.899163 38.3417 0.621094 38.6854 0.621094H39.9309C40.2746 0.621094 40.5536 0.899163 40.5536 1.24178C40.5536 1.5844 40.2746 1.86247 39.9309 1.86247Z" fill="#263238"/>
<path d="M36.1946 71.3799C35.8509 71.3799 35.5719 71.1018 35.5719 70.7592C35.5719 70.4166 35.8509 70.1385 36.1946 70.1385C55.0788 70.1385 70.4434 54.8248 70.4434 36.0006C70.4434 35.658 70.7223 35.3799 71.0661 35.3799C71.4098 35.3799 71.6888 35.658 71.6888 36.0006C71.6888 55.5088 55.7662 71.3799 36.1946 71.3799Z" fill="#263238"/>
<path d="M33.7038 71.3801H32.4584C32.1147 71.3801 31.8357 71.102 31.8357 70.7594C31.8357 70.4167 32.1147 70.1387 32.4584 70.1387H33.7038C34.0475 70.1387 34.3265 70.4167 34.3265 70.7594C34.3265 71.102 34.0475 71.3801 33.7038 71.3801Z" fill="#263238"/>
<path fill-rule="evenodd" clip-rule="evenodd" d="M5.68207 36.0007C5.68207 52.7705 19.3704 66.4145 36.1946 66.4145C53.0201 66.4145 66.7071 52.7705 66.7071 36.0007C66.7071 19.2309 53.0201 5.58691 36.1946 5.58691C19.3704 5.58691 5.68207 19.2309 5.68207 36.0007ZM6.92748 36.0007C6.92748 19.9149 20.0566 6.82829 36.1946 6.82829C52.3326 6.82829 65.4617 19.9149 65.4617 36.0007C65.4617 52.0865 52.3326 65.1731 36.1946 65.1731C20.0566 65.1731 6.92748 52.0865 6.92748 36.0007Z" fill="#263238"/>
<path fill-rule="evenodd" clip-rule="evenodd" d="M13.1545 36.0007C13.1545 48.664 23.4902 58.9662 36.1946 58.9662C48.899 58.9662 59.2347 48.664 59.2347 36.0007C59.2347 23.3374 48.899 13.0352 36.1946 13.0352C23.4902 13.0352 13.1545 23.3374 13.1545 36.0007ZM14.4 36.0007C14.4 24.0226 24.1777 14.2765 36.1946 14.2765C48.2116 14.2765 57.9893 24.0226 57.9893 36.0007C57.9893 47.9787 48.2116 57.7248 36.1946 57.7248C24.1777 57.7248 14.4 47.9787 14.4 36.0007Z" fill="#263238"/>
<path d="M62.3482 4.34489H57.3666C57.0228 4.34489 56.7439 4.06683 56.7439 3.72421C56.7439 3.38158 57.0228 3.10352 57.3666 3.10352H62.3482C62.6919 3.10352 62.9709 3.38158 62.9709 3.72421C62.9709 4.06683 62.6919 4.34489 62.3482 4.34489Z" fill="#263238"/>
<path d="M59.8574 6.82799C59.5137 6.82799 59.2347 6.54992 59.2347 6.2073V1.24178C59.2347 0.899163 59.5137 0.621094 59.8574 0.621094C60.2011 0.621094 60.4801 0.899163 60.4801 1.24178V6.2073C60.4801 6.54992 60.2011 6.82799 59.8574 6.82799Z" fill="#263238"/>
<path d="M71.0661 12.4142H66.0844C65.7407 12.4142 65.4617 12.1362 65.4617 11.7935C65.4617 11.4509 65.7407 11.1729 66.0844 11.1729H71.0661C71.4098 11.1729 71.6888 11.4509 71.6888 11.7935C71.6888 12.1362 71.4098 12.4142 71.0661 12.4142Z" fill="#263238"/>
<path d="M68.5753 14.8973C68.2315 14.8973 67.9526 14.6193 67.9526 14.2766V9.31112C67.9526 8.9685 68.2315 8.69043 68.5753 8.69043C68.919 8.69043 69.198 8.9685 69.198 9.31112V14.2766C69.198 14.6193 68.919 14.8973 68.5753 14.8973Z" fill="#263238"/>
<path d="M33.9632 41.1673H34.5049C34.5049 40.8682 34.2624 40.6257 33.9632 40.6257V41.1673ZM37.4633 49.3341V49.8758C37.6773 49.8758 37.8713 49.7497 37.9583 49.5541L37.4633 49.3341ZM42.13 38.834L42.625 39.054C42.6558 38.9847 42.6717 38.9098 42.6717 38.834H42.13ZM42.13 26.0004H42.6717C42.6717 25.7013 42.4292 25.4588 42.13 25.4588V26.0004ZM28.9698 26.0004L28.9637 26.5421H28.9698V26.0004ZM26.6364 27.9838L27.1718 28.0659L27.172 28.065L26.6364 27.9838ZM25.0264 38.484L24.491 38.4019L24.4909 38.4027L25.0264 38.484ZM27.3598 41.1673V40.6256L27.3536 40.6257L27.3598 41.1673ZM42.13 25.4588C41.8309 25.4588 41.5883 25.7013 41.5883 26.0004C41.5883 26.2996 41.8309 26.5421 42.13 26.5421V25.4588ZM45.2451 26.0004V26.5422L45.2546 26.542L45.2451 26.0004ZM47.9634 28.3338H48.5051C48.5051 28.3095 48.5035 28.2853 48.5002 28.2612L47.9634 28.3338ZM47.9634 36.5006L48.5002 36.5732C48.5035 36.5491 48.5051 36.5249 48.5051 36.5006H47.9634ZM45.2451 38.834L45.2546 38.2923H45.2451V38.834ZM42.13 38.2923C41.8309 38.2923 41.5883 38.5348 41.5883 38.834C41.5883 39.1331 41.8309 39.3756 42.13 39.3756V38.2923ZM33.4215 41.1673V45.8341H34.5049V41.1673H33.4215ZM33.4215 45.8341C33.4215 48.0663 35.2311 49.8758 37.4633 49.8758V48.7925C35.8294 48.7925 34.5049 47.4679 34.5049 45.8341H33.4215ZM37.9583 49.5541L42.625 39.054L41.635 38.614L36.9683 49.1141L37.9583 49.5541ZM42.6717 38.834V26.0004H41.5883V38.834H42.6717ZM42.13 25.4588H28.9698V26.5421H42.13V25.4588ZM28.9759 25.4588C27.5423 25.4426 26.3159 26.4851 26.1009 27.9026L27.172 28.065C27.3059 27.1816 28.0703 26.532 28.9637 26.5421L28.9759 25.4588ZM26.101 27.9017L24.491 38.4019L25.5618 38.5661L27.1718 28.0659L26.101 27.9017ZM24.4909 38.4027C24.3643 39.2366 24.6103 40.0841 25.1638 40.7206L25.9813 40.0098C25.6364 39.6131 25.4831 39.085 25.5619 38.5652L24.4909 38.4027ZM25.1638 40.7206C25.7173 41.3572 26.5224 41.7185 27.3659 41.709L27.3536 40.6257C26.828 40.6317 26.3263 40.4065 25.9813 40.0098L25.1638 40.7206ZM27.3598 41.709H33.9632V40.6257H27.3598V41.709ZM42.13 26.5421H45.2451V25.4588H42.13V26.5421ZM45.2546 26.542C46.3467 26.5227 47.2803 27.324 47.4267 28.4064L48.5002 28.2612C48.2802 26.6343 46.8769 25.4298 45.2355 25.4588L45.2546 26.542ZM47.4218 28.3338V36.5006H48.5051V28.3338H47.4218ZM47.4267 36.428C47.2803 37.5104 46.3467 38.3117 45.2546 38.2924L45.2355 39.3755C46.8769 39.4046 48.2802 38.2001 48.5002 36.5732L47.4267 36.428ZM45.2451 38.2923H42.13V39.3756H45.2451V38.2923Z" fill="black"/>
</svg>
