<svg width="101" height="101" viewBox="0 0 101 101" fill="none" xmlns="http://www.w3.org/2000/svg">
<path d="M31.2259 33.2409V53.1069H32.9012V33.774C32.9012 27.4892 37.7077 22.3944 43.9926 22.3944C45.3391 22.3944 46.6302 22.6297 47.8287 23.0589L47.7854 23.0347C46.1018 22.082 44.7156 21.5359 42.6341 21.5359C36.1701 21.5359 31.2259 26.7762 31.2259 33.2409ZM60.1186 31.7042C60.1145 31.6262 60.1099 31.5487 60.1045 31.4711C60.0936 31.3106 60.0798 31.1503 60.0631 30.9903C60.0556 30.916 60.0498 30.8403 60.0412 30.7662C60.0168 30.5645 59.9882 30.3634 59.9552 30.1629C59.938 30.059 59.9184 29.9556 59.8989 29.8519C59.8784 29.7422 59.8568 29.6327 59.8339 29.5236C59.8086 29.4083 59.7846 29.2931 59.7574 29.1788C59.7372 29.096 59.7149 29.0135 59.6935 28.9309C59.6333 28.697 59.5669 28.4647 59.4944 28.2343C59.4771 28.1787 59.4605 28.1233 59.4424 28.068C59.3944 27.9215 59.3441 27.7758 59.2914 27.6309C59.2841 27.6101 59.2759 27.5896 59.2684 27.569C57.8553 23.7449 54.8397 20.5932 51.1136 18.7832C55.5617 21.6065 58.664 26.3935 58.664 31.8238V34.7149C58.664 36.2574 57.639 37.5138 56.3499 37.5979C56.3458 37.5981 56.3418 37.599 56.3375 37.5994C56.7339 37.8618 57.2234 38.0187 57.7554 38.0187C59.0713 38.0187 60.1379 36.7602 60.1379 35.2077V32.3967C60.1379 32.3857 60.1373 32.375 60.1373 32.3642C60.1364 32.1441 60.1301 31.924 60.1186 31.7042Z" fill="#A7A7A7"/>
<path d="M58.1836 38.4343C56.4291 38.4343 55.0017 37.1252 55.0017 35.5161V33.359C55.0017 27.4033 50.156 22.558 44.2002 22.558C38.8183 22.558 34.5429 26.6325 34.0343 32.246C33.9962 32.6649 33.6258 32.973 33.2073 32.9356C33.1077 32.9266 33.0109 32.898 32.9224 32.8516C32.8338 32.8052 32.7553 32.7418 32.6913 32.665C32.6272 32.5882 32.5789 32.4996 32.5492 32.4041C32.5194 32.3087 32.5087 32.2083 32.5178 32.1088C33.0993 25.6922 38.0124 21.0352 44.2003 21.0352C50.996 21.0352 56.5246 26.5636 56.5246 33.359V35.5161C56.5246 36.2856 57.269 36.9115 58.1837 36.9115C59.0994 36.9115 59.8442 35.9714 59.8442 34.816V31.9601C59.8442 30.6674 59.6542 29.3788 59.28 28.1302C59.2512 28.0344 59.2417 27.9339 59.2518 27.8345C59.2619 27.735 59.2915 27.6385 59.339 27.5504C59.3864 27.4624 59.4507 27.3846 59.5282 27.3214C59.6057 27.2582 59.6949 27.2109 59.7907 27.1822C60.1937 27.0611 60.6177 27.2904 60.7385 27.6928C61.1546 29.0771 61.3663 30.5147 61.367 31.9602V34.8161C61.3669 36.811 59.9389 38.4343 58.1836 38.4343Z" fill="white" fill-opacity="0.9"/>
<path d="M33.9845 53.7649H27.3358V31.9599C27.3358 25.6073 31.5963 19.5635 37.9377 16.9203C38.1236 16.8454 38.3314 16.8468 38.5163 16.9242C38.7011 17.0015 38.848 17.1486 38.9251 17.3336C39.0022 17.5185 39.0033 17.7264 38.9281 17.9122C38.853 18.0979 38.7077 18.2466 38.5236 18.3259C32.7427 20.7353 28.8586 26.2145 28.8586 31.9599V52.2421H32.4618V36.4546C32.4651 36.2549 32.5467 36.0644 32.6891 35.9242C32.8316 35.7841 33.0233 35.7056 33.2232 35.7056C33.423 35.7056 33.6148 35.7841 33.7572 35.9242C33.8996 36.0644 33.9813 36.2549 33.9845 36.4546V53.7649ZM54.447 20.7506C54.2788 20.7508 54.1152 20.6949 53.9822 20.5918C51.1463 18.4012 47.6722 17.1948 44.2002 17.1948C43.4526 17.1948 42.7038 17.2508 41.9744 17.3615C41.5603 17.4241 41.1707 17.1387 41.1074 16.7229C41.0772 16.5232 41.1274 16.3197 41.2472 16.1571C41.367 15.9945 41.5464 15.8862 41.7461 15.8559C42.5584 15.7332 43.3787 15.6717 44.2002 15.6719C48.0072 15.6719 51.8118 16.9912 54.9131 19.3865C55.0388 19.4837 55.131 19.6178 55.1767 19.77C55.2224 19.9222 55.2193 20.0849 55.168 20.2353C55.1166 20.3856 55.0194 20.5162 54.8902 20.6086C54.7609 20.701 54.6059 20.7507 54.447 20.7506ZM58.1692 24.7481C58.0428 24.7483 57.9184 24.7169 57.8072 24.6569C57.6959 24.597 57.6014 24.5102 57.532 24.4046C57.4471 24.275 57.3625 24.1452 57.2784 24.0152C56.8056 23.2865 56.6466 23.0411 55.9153 22.3497C55.7692 22.2107 55.6841 22.0195 55.6787 21.818C55.6734 21.6164 55.7481 21.421 55.8867 21.2745C56.0252 21.128 56.2162 21.0425 56.4178 21.0366C56.6193 21.0307 56.8149 21.105 56.9618 21.2432C57.8251 22.0597 58.0541 22.4129 58.556 23.1865C58.6307 23.302 58.7127 23.4283 58.8049 23.5686C58.8598 23.6522 58.8977 23.7457 58.9164 23.844C58.9351 23.9422 58.9343 24.0431 58.914 24.141C58.8937 24.2389 58.8543 24.3319 58.7981 24.4146C58.7418 24.4973 58.6699 24.568 58.5863 24.6229C58.4625 24.7047 58.3175 24.7483 58.1692 24.7481Z" fill="white" fill-opacity="0.9"/>
<path d="M64.0114 44.3867H56.059C57.759 44.3867 59.1374 45.7648 59.1374 47.465V80.8146C59.1374 82.5145 57.7591 83.8931 56.059 83.8931H64.0114C65.7113 83.8931 67.0897 82.5146 67.0897 80.8146V47.465C67.0897 45.7648 65.7114 44.3867 64.0114 44.3867Z" fill="#E50914"/>
<path d="M36.1926 65.8712C36.1926 66.2794 36.3548 66.6709 36.6434 66.9596C36.9321 67.2482 37.3236 67.4104 37.7318 67.4104C38.14 67.4104 38.5315 67.2482 38.8202 66.9596C39.1088 66.6709 39.271 66.2794 39.271 65.8712C39.271 65.463 39.1088 65.0715 38.8202 64.7828C38.5315 64.4942 38.14 64.332 37.7318 64.332C37.3236 64.332 36.9321 64.4942 36.6434 64.7828C36.3548 65.0715 36.1926 65.463 36.1926 65.8712Z" fill="white" fill-opacity="0.9"/>
<path d="M51.0715 65.8712C51.0715 66.2794 51.2336 66.6709 51.5223 66.9596C51.8109 67.2482 52.2024 67.4104 52.6106 67.4104C53.0189 67.4104 53.4103 67.2482 53.699 66.9596C53.9876 66.6709 54.1498 66.2794 54.1498 65.8712C54.1498 65.463 53.9876 65.0715 53.699 64.7828C53.4103 64.4942 53.0189 64.332 52.6106 64.332C52.2024 64.332 51.8109 64.4942 51.5223 64.7828C51.2336 65.0715 51.0715 65.463 51.0715 65.8712Z" fill="white" fill-opacity="0.9"/>
<path d="M48.4771 68.2531C48.5023 68.0254 48.3142 67.8389 48.0847 67.8389H41.4459C41.217 67.8389 41.0291 68.0254 41.0539 68.2531C41.26 70.1205 42.843 71.5732 44.7657 71.5732C46.6883 71.5731 48.2713 70.1205 48.4771 68.2531Z" fill="#FF9F00"/>
<path d="M45.9698 70.4414C45.9698 70.7781 45.4086 71.0518 44.7165 71.0518C44.0241 71.0518 43.4627 70.7782 43.4627 70.4414C43.4627 70.1043 44.0241 69.8311 44.7165 69.8311C45.4086 69.8312 45.9698 70.1043 45.9698 70.4414Z" fill="#FD631F"/>
<path d="M84.872 31.9863C83.8508 31.9863 83.02 31.1558 83.02 30.1352C83.02 29.1142 83.8508 28.2836 84.872 28.2836C85.8928 28.2836 86.7234 29.1142 86.7234 30.1352C86.7235 31.1558 85.8928 31.9863 84.872 31.9863ZM84.872 28.7187C84.0906 28.7187 83.455 29.3542 83.455 30.1352C83.455 30.916 84.0906 31.5512 84.872 31.5512C85.6529 31.5512 86.2884 30.916 86.2884 30.1352C86.2884 29.3542 85.6529 28.7187 84.872 28.7187ZM77.0322 29.2575C76.9345 29.2574 76.8407 29.2186 76.7715 29.1494C76.7024 29.0803 76.6635 28.9865 76.6634 28.8887V28.5192C76.6634 28.297 76.4835 28.1172 76.2606 28.1172C76.1539 28.1172 76.0516 28.1595 75.9762 28.2349C75.9007 28.3103 75.8583 28.4126 75.8583 28.5192V28.8887C75.8583 28.9372 75.8487 28.9851 75.8302 29.0299C75.8116 29.0746 75.7845 29.1153 75.7502 29.1495C75.716 29.1837 75.6753 29.2109 75.6306 29.2294C75.5858 29.2479 75.5379 29.2575 75.4894 29.2575H75.1206C75.0672 29.2566 75.0142 29.2664 74.9646 29.2862C74.915 29.3061 74.8699 29.3356 74.8318 29.3731C74.7937 29.4106 74.7635 29.4552 74.7429 29.5045C74.7222 29.5538 74.7116 29.6066 74.7116 29.66C74.7116 29.7135 74.7222 29.7663 74.7429 29.8156C74.7635 29.8649 74.7937 29.9095 74.8318 29.947C74.8699 29.9845 74.915 30.014 74.9646 30.0338C75.0142 30.0537 75.0672 30.0635 75.1206 30.0626H75.4894C75.5379 30.0626 75.5858 30.0722 75.6306 30.0907C75.6753 30.1092 75.716 30.1364 75.7502 30.1707C75.7845 30.2049 75.8116 30.2456 75.8302 30.2903C75.8487 30.3351 75.8583 30.383 75.8583 30.4314V30.8003C75.8583 31.0224 76.0386 31.2026 76.2606 31.2026C76.3135 31.2027 76.3658 31.1923 76.4147 31.1721C76.4636 31.1519 76.508 31.1223 76.5454 31.0849C76.5828 31.0476 76.6125 31.0032 76.6328 30.9543C76.653 30.9055 76.6634 30.8531 76.6634 30.8003V30.4314C76.6635 30.3336 76.7023 30.2398 76.7715 30.1707C76.8406 30.1015 76.9344 30.0627 77.0322 30.0626H77.4015C77.5082 30.0625 77.6106 30.02 77.6861 29.9445C77.7616 29.869 77.804 29.7666 77.804 29.6598C77.804 29.4376 77.6232 29.2575 77.4015 29.2575H77.0322Z" fill="#FD5C1E"/>
<path d="M92.7539 22.6793C92.6729 22.6793 92.5928 22.6634 92.518 22.6325C92.4432 22.6015 92.3752 22.5561 92.3179 22.4989C92.2607 22.4416 92.2153 22.3737 92.1844 22.2989C92.1534 22.2241 92.1375 22.1439 92.1375 22.0629V21.4463C92.1374 21.268 92.0665 21.0969 91.9403 20.9709C91.8142 20.8448 91.6431 20.774 91.4648 20.7739C91.2865 20.774 91.1155 20.8449 90.9894 20.971C90.8634 21.0971 90.7925 21.268 90.7924 21.4463V22.0629C90.7924 22.1439 90.7764 22.2241 90.7455 22.2989C90.7145 22.3737 90.6691 22.4416 90.6118 22.4989C90.5546 22.5561 90.4866 22.6015 90.4118 22.6324C90.337 22.6634 90.2568 22.6793 90.1758 22.6793H89.5591C89.4708 22.6793 89.3833 22.6967 89.3017 22.7306C89.2201 22.7644 89.1459 22.814 89.0835 22.8765C89.0211 22.939 88.9715 23.0132 88.9378 23.0948C88.904 23.1764 88.8867 23.2639 88.8867 23.3523C88.8867 23.4406 88.9041 23.528 88.9379 23.6095C88.9717 23.6911 89.0212 23.7652 89.0837 23.8276C89.1461 23.8901 89.2202 23.9396 89.3018 23.9733C89.3834 24.0071 89.4708 24.0245 89.5591 24.0244H90.1758C90.2568 24.0244 90.337 24.0403 90.4118 24.0713C90.4866 24.1023 90.5546 24.1477 90.6118 24.2049C90.6691 24.2622 90.7145 24.3301 90.7455 24.4049C90.7765 24.4797 90.7924 24.5599 90.7924 24.6409V25.2579C90.7925 25.4362 90.8634 25.6071 90.9895 25.733C91.1156 25.859 91.2865 25.9298 91.4648 25.9298C91.6431 25.9299 91.8141 25.8591 91.9403 25.7332C92.0664 25.6072 92.1374 25.4362 92.1375 25.2579V24.6409C92.1375 24.5599 92.1534 24.4797 92.1843 24.4049C92.2153 24.3301 92.2607 24.2621 92.3179 24.2049C92.3752 24.1476 92.4431 24.1022 92.5179 24.0713C92.5927 24.0403 92.6729 24.0244 92.7539 24.0244H93.3704C93.4587 24.0245 93.5462 24.0072 93.6277 23.9734C93.7093 23.9397 93.7835 23.8902 93.8459 23.8277C93.9083 23.7653 93.9578 23.6912 93.9916 23.6096C94.0253 23.528 94.0427 23.4406 94.0426 23.3523C94.0427 23.2639 94.0254 23.1764 93.9917 23.0948C93.958 23.0131 93.9085 22.9389 93.846 22.8764C93.7836 22.8139 93.7095 22.7643 93.6278 22.7305C93.5462 22.6967 93.4588 22.6793 93.3704 22.6793H92.7539Z" fill="#FED62C"/>
<path d="M67.5719 34.2563C67.5288 34.2563 67.486 34.2648 67.4462 34.2814C67.4063 34.2979 67.3701 34.3221 67.3397 34.3527C67.3092 34.3832 67.285 34.4195 67.2686 34.4594C67.2522 34.4993 67.2438 34.542 67.2439 34.5852L67.2431 36.03C67.2431 36.211 67.3907 36.358 67.5726 36.3584C67.6596 36.3582 67.743 36.3235 67.8045 36.2619C67.866 36.2004 67.9006 36.117 67.9008 36.03V34.5852C67.9008 34.4979 67.8661 34.4143 67.8045 34.3527C67.7428 34.291 67.6591 34.2563 67.5719 34.2563ZM67.5719 39.2487C67.4848 39.2488 67.4013 39.2834 67.3396 39.345C67.278 39.4065 67.2433 39.49 67.2431 39.5771L67.2439 41.0224C67.2439 41.1095 67.2785 41.193 67.3401 41.2546C67.4017 41.3162 67.4852 41.3508 67.5723 41.3508C67.6594 41.3508 67.7429 41.3162 67.8045 41.2546C67.8661 41.193 67.9007 41.1095 67.9007 41.0224V39.5771C67.9007 39.534 67.8922 39.4913 67.8756 39.4514C67.8591 39.4115 67.8349 39.3753 67.8043 39.3448C67.7738 39.3143 67.7376 39.2902 67.6977 39.2737C67.6578 39.2572 67.6151 39.2487 67.5719 39.2487ZM66.0859 36.7816C66.1163 36.8121 66.1525 36.8364 66.1924 36.8529C66.2322 36.8695 66.2749 36.878 66.3181 36.878C66.3612 36.878 66.404 36.8695 66.4438 36.8529C66.4837 36.8364 66.5198 36.8121 66.5503 36.7816C66.5809 36.7511 66.6051 36.7149 66.6217 36.6751C66.6382 36.6352 66.6467 36.5925 66.6467 36.5493C66.6467 36.5062 66.6382 36.4635 66.6217 36.4236C66.6051 36.3838 66.5809 36.3476 66.5503 36.3171L65.5284 35.2953C65.4664 35.2357 65.3835 35.2028 65.2976 35.2037C65.2116 35.2045 65.1294 35.239 65.0685 35.2998C65.0077 35.3606 64.9732 35.4428 64.9723 35.5288C64.9714 35.6147 65.0042 35.6976 65.0638 35.7597L66.0859 36.7816ZM69.058 38.8256C69.0276 38.795 68.9914 38.7708 68.9516 38.7542C68.9119 38.7377 68.8692 38.7292 68.8261 38.7292C68.783 38.7292 68.7403 38.7377 68.7005 38.7542C68.6607 38.7708 68.6246 38.795 68.5942 38.8256C68.5637 38.8561 68.5395 38.8923 68.523 38.9321C68.5064 38.972 68.4979 39.0147 68.4979 39.0578C68.4979 39.1009 68.5064 39.1437 68.523 39.1835C68.5395 39.2233 68.5637 39.2595 68.5942 39.29L69.6163 40.3118C69.6785 40.3708 69.7612 40.4031 69.8468 40.4019C69.9324 40.4008 70.0142 40.3662 70.0747 40.3056C70.1352 40.245 70.1697 40.1631 70.1707 40.0775C70.1717 39.9919 70.1393 39.9092 70.0803 39.8472L69.058 38.8256ZM66.1267 37.8037C66.1267 37.7606 66.1182 37.7179 66.1018 37.678C66.0853 37.6382 66.0611 37.602 66.0306 37.5715C66.0001 37.541 65.9639 37.5168 65.9241 37.5004C65.8843 37.4839 65.8416 37.4754 65.7984 37.4755H64.3534C64.3103 37.4754 64.2675 37.4838 64.2276 37.5003C64.1878 37.5167 64.1515 37.5409 64.121 37.5714C64.0905 37.6019 64.0663 37.6381 64.0498 37.678C64.0332 37.7178 64.0248 37.7605 64.0248 37.8037C64.0249 37.8908 64.0595 37.9743 64.1211 38.0359C64.1827 38.0975 64.2663 38.1321 64.3534 38.1321H65.7984C65.8416 38.1321 65.8843 38.1236 65.9241 38.1071C65.964 38.0906 66.0002 38.0664 66.0307 38.0359C66.0611 38.0054 66.0853 37.9692 66.1018 37.9294C66.1183 37.8895 66.1267 37.8468 66.1267 37.8037ZM70.7906 37.4755H69.3454C69.3023 37.4755 69.2596 37.484 69.2198 37.5005C69.18 37.517 69.1438 37.5412 69.1133 37.5717C69.0829 37.6022 69.0587 37.6384 69.0422 37.6782C69.0258 37.7181 69.0173 37.7608 69.0174 37.8039C69.0173 37.847 69.0258 37.8897 69.0423 37.9296C69.0588 37.9694 69.083 38.0056 69.1135 38.0361C69.144 38.0666 69.1802 38.0908 69.2201 38.1072C69.2599 38.1237 69.3026 38.1322 69.3458 38.1321H70.7906C70.8338 38.1321 70.8765 38.1236 70.9164 38.1071C70.9562 38.0907 70.9925 38.0665 71.023 38.036C71.0535 38.0055 71.0777 37.9693 71.0942 37.9294C71.1107 37.8895 71.1192 37.8468 71.1192 37.8037C71.1194 37.7605 71.111 37.7177 71.0945 37.6778C71.078 37.6379 71.0538 37.6017 71.0233 37.5712C70.9927 37.5406 70.9564 37.5165 70.9165 37.5001C70.8766 37.4836 70.8338 37.4753 70.7906 37.4755ZM66.0859 38.8256L65.0638 39.8472C65.0022 39.9088 64.9676 39.9924 64.9676 40.0795C64.9676 40.1666 65.0022 40.2502 65.0638 40.3118C65.0942 40.3424 65.1304 40.3666 65.1703 40.3832C65.2102 40.3997 65.2529 40.4082 65.2961 40.4082C65.3392 40.4082 65.382 40.3997 65.4218 40.3832C65.4617 40.3666 65.4979 40.3424 65.5284 40.3118L66.5503 39.29C66.5809 39.2596 66.6051 39.2234 66.6217 39.1835C66.6382 39.1437 66.6467 39.101 66.6467 39.0578C66.6467 39.0147 66.6382 38.9719 66.6217 38.9321C66.6051 38.8922 66.5809 38.856 66.5503 38.8256C66.5198 38.795 66.4837 38.7708 66.4438 38.7542C66.404 38.7377 66.3612 38.7292 66.3181 38.7292C66.2749 38.7292 66.2322 38.7377 66.1924 38.7542C66.1525 38.7708 66.1163 38.795 66.0859 38.8256ZM69.0586 36.7816L70.0802 35.7597C70.1417 35.6981 70.1762 35.6146 70.1762 35.5275C70.1762 35.4404 70.1417 35.3569 70.0802 35.2953C70.0498 35.2648 70.0136 35.2405 69.9738 35.2239C69.934 35.2074 69.8913 35.1989 69.8482 35.1989C69.8051 35.1989 69.7624 35.2074 69.7226 35.2239C69.6828 35.2405 69.6466 35.2648 69.6162 35.2953L68.5941 36.3171C68.5636 36.3476 68.5394 36.3838 68.5229 36.4237C68.5063 36.4635 68.4978 36.5062 68.4978 36.5493C68.4978 36.5925 68.5063 36.6352 68.5229 36.675C68.5394 36.7149 68.5636 36.7511 68.5941 36.7816C68.6246 36.8122 68.6607 36.8365 68.7006 36.853C68.7404 36.8696 68.7832 36.8781 68.8263 36.8781C68.8695 36.8781 68.9122 36.8696 68.9521 36.853C68.9919 36.8365 69.0281 36.8122 69.0586 36.7816Z" fill="#FED62C"/>
<path d="M90.0965 84.872H85.4468C84.9061 84.872 84.4678 84.4337 84.4678 83.8931C84.4678 83.3524 84.9061 82.9141 85.4468 82.9141H90.0965C90.6372 82.9141 91.0755 83.3524 91.0755 83.8931C91.0755 84.4337 90.6372 84.872 90.0965 84.872Z" fill="white" fill-opacity="0.9"/>
<path d="M80.829 84.872H78.0713C77.5306 84.872 77.0923 84.4337 77.0923 83.8931C77.0923 83.3524 77.5306 82.9141 78.0713 82.9141H80.829C81.3697 82.9141 81.808 83.3524 81.808 83.8931C81.808 84.4337 81.3697 84.872 80.829 84.872Z" fill="white" fill-opacity="0.9"/>
<path d="M73.1972 84.872H17.9793C17.4386 84.872 17.0003 84.4337 17.0003 83.8931C17.0003 83.3524 17.4386 82.9141 17.9793 82.9141H73.1972C73.7379 82.9141 74.1762 83.3524 74.1762 83.8931C74.1762 84.4337 73.7379 84.872 73.1972 84.872Z" fill="white" fill-opacity="0.9"/>
<path d="M11.6621 84.872H7.49345C6.95276 84.872 6.51447 84.4337 6.51447 83.8931C6.51447 83.3524 6.95276 82.9141 7.49345 82.9141H11.6622C12.2029 82.9141 12.6411 83.3524 12.6411 83.8931C12.6411 84.4337 12.2028 84.872 11.6621 84.872Z" fill="white" fill-opacity="0.9"/>
<path d="M76.1842 43.1007C76.1842 43.1625 76.172 43.2237 76.1484 43.2809C76.1247 43.338 76.0901 43.3899 76.0463 43.4336C76.0026 43.4774 75.9507 43.5121 75.8936 43.5357C75.8364 43.5594 75.7752 43.5715 75.7134 43.5715C75.5886 43.5715 75.4689 43.5219 75.3806 43.4337C75.2924 43.3454 75.2428 43.2257 75.2428 43.1009C75.2428 42.9761 75.2924 42.8564 75.3806 42.7682C75.4689 42.6799 75.5886 42.6304 75.7134 42.6304C75.7752 42.6303 75.8364 42.6424 75.8935 42.6661C75.9506 42.6897 76.0025 42.7243 76.0462 42.768C76.0899 42.8116 76.1246 42.8635 76.1483 42.9206C76.172 42.9777 76.1841 43.0389 76.1842 43.1007Z" fill="#FD5C1E"/>
<path d="M81.1769 37.666C81.1778 37.7367 81.1647 37.8069 81.1383 37.8725C81.1119 37.9381 81.0728 37.9979 81.0231 38.0482C80.9734 38.0986 80.9142 38.1386 80.849 38.1658C80.7837 38.1931 80.7137 38.2072 80.6429 38.2072C80.5722 38.2072 80.5022 38.1931 80.4369 38.1658C80.3717 38.1385 80.3125 38.0985 80.2628 38.0482C80.2132 37.9978 80.174 37.9381 80.1476 37.8724C80.1212 37.8068 80.1081 37.7366 80.1091 37.6659C80.1111 37.5255 80.1682 37.3916 80.2681 37.2931C80.368 37.1945 80.5027 37.1393 80.643 37.1393C80.7834 37.1393 80.9181 37.1946 81.018 37.2932C81.1179 37.3917 81.1749 37.5256 81.1769 37.666ZM72.2653 20.5292C72.2653 20.7418 72.1808 20.9457 72.0305 21.096C71.8802 21.2464 71.6764 21.3309 71.4638 21.3309C71.2527 21.3286 71.0511 21.2431 70.9027 21.093C70.7543 20.9429 70.671 20.7403 70.671 20.5292C70.671 20.3182 70.7543 20.1156 70.9027 19.9655C71.0511 19.8154 71.2527 19.7299 71.4638 19.7275C71.906 19.7275 72.2653 20.0869 72.2653 20.5292Z" fill="#FDD72C"/>
<path d="M79.7181 20.8757C78.5754 20.8757 77.6458 19.9459 77.6458 18.8034C77.6458 17.6603 78.5754 16.7305 79.7181 16.7305C80.8608 16.7305 81.7907 17.6604 81.7907 18.8034C81.7907 19.946 80.8609 20.8757 79.7181 20.8757ZM79.7181 17.3832C78.9353 17.3832 78.2983 18.0203 78.2983 18.8035C78.2983 19.5862 78.9353 20.2232 79.7181 20.2232C80.5012 20.2232 81.1381 19.5862 81.1381 18.8035C81.1381 18.0202 80.5012 17.3832 79.7181 17.3832Z" fill="#2BA9FC"/>
<path d="M62.4722 84.872H26.0449C22.959 84.872 20.4483 82.3613 20.4483 79.2754V49.0041C20.4483 45.9182 22.959 43.4077 26.0449 43.4077H62.4722C65.5581 43.4077 68.0686 45.9182 68.0686 49.0041V61.9582C68.0686 62.4989 67.6303 62.9372 67.0896 62.9372C66.5489 62.9372 66.1106 62.4989 66.1106 61.9582V49.0041C66.1106 46.9978 64.4785 45.3656 62.4721 45.3656H26.0449C24.0385 45.3656 22.4062 46.9978 22.4062 49.0041V79.2754C22.4062 81.2817 24.0385 82.9141 26.0449 82.9141H62.4722C64.4786 82.9141 66.1107 81.2817 66.1107 79.2754V74.785C66.1107 74.2443 66.549 73.806 67.0897 73.806C67.6304 73.806 68.0687 74.2443 68.0687 74.785V79.2754C68.0686 82.3613 65.5582 84.872 62.4722 84.872Z" fill="white" fill-opacity="0.9"/>
<path d="M67.0897 71.6594C66.8301 71.6594 66.581 71.5563 66.3975 71.3727C66.2139 71.1891 66.1107 70.9401 66.1107 70.6804V66.1914C66.1107 65.6507 66.549 65.2124 67.0897 65.2124C67.6304 65.2124 68.0687 65.6507 68.0687 66.1914V70.6805C68.0686 71.2212 67.6304 71.6594 67.0897 71.6594Z" fill="white" fill-opacity="0.9"/>
</svg>
