<svg width="53" height="39" viewBox="0 0 53 39" fill="none" xmlns="http://www.w3.org/2000/svg">
<g clip-path="url(#clip0_521_4031)">
<g clip-path="url(#clip1_521_4031)">
<path d="M9.80762 30.8906V38H9.20215L5.11523 31.9258V38H4.51465V30.8906H5.11523L9.21191 36.9648V30.8906H9.80762ZM13.5283 38.0977C13.1833 38.0977 12.8659 38.0342 12.5762 37.9072C12.2897 37.7803 12.0391 37.6012 11.8242 37.3701C11.6126 37.139 11.4482 36.8656 11.3311 36.5498C11.2171 36.2308 11.1602 35.8825 11.1602 35.5049V35.2949C11.1602 34.888 11.2204 34.5202 11.3408 34.1914C11.4613 33.8626 11.6273 33.5811 11.8389 33.3467C12.0505 33.1123 12.2913 32.9333 12.5615 32.8096C12.835 32.6826 13.1214 32.6191 13.4209 32.6191C13.7562 32.6191 14.054 32.6794 14.3145 32.7998C14.5749 32.917 14.793 33.0846 14.9688 33.3027C15.1478 33.5176 15.2829 33.7731 15.374 34.0693C15.4652 34.3623 15.5107 34.6862 15.5107 35.041V35.3975H11.5117V34.8994H14.9297V34.8311C14.9232 34.5348 14.863 34.2581 14.749 34.001C14.6383 33.7406 14.4723 33.529 14.251 33.3662C14.0296 33.2035 13.7529 33.1221 13.4209 33.1221C13.1735 33.1221 12.9456 33.1742 12.7373 33.2783C12.5322 33.3825 12.3548 33.5322 12.2051 33.7275C12.0586 33.9196 11.9447 34.1491 11.8633 34.416C11.7852 34.6797 11.7461 34.9727 11.7461 35.2949V35.5049C11.7461 35.7979 11.7884 36.0713 11.873 36.3252C11.9609 36.5758 12.0846 36.7972 12.2441 36.9893C12.4069 37.1813 12.599 37.3311 12.8203 37.4385C13.0417 37.5459 13.2858 37.5996 13.5527 37.5996C13.8652 37.5996 14.1419 37.5426 14.3828 37.4287C14.6237 37.3115 14.8402 37.1276 15.0322 36.877L15.3984 37.1602C15.2845 37.3294 15.1413 37.4857 14.9688 37.6289C14.7995 37.7721 14.596 37.8861 14.3584 37.9707C14.1208 38.0553 13.8441 38.0977 13.5283 38.0977ZM18.1279 36.7646L19.4023 32.7168H19.8125L19.5684 33.8057L18.2354 38H17.8252L18.1279 36.7646ZM16.8047 32.7168L17.9229 36.7891L18.1621 38H17.7373L16.2041 32.7168H16.8047ZM21.3994 36.7744L22.4883 32.7168H23.0889L21.5557 38H21.1357L21.3994 36.7744ZM19.8955 32.7168L21.1504 36.7305L21.4678 38H21.0576L19.6953 33.8008L19.4658 32.7168H19.8955ZM27.791 34.167L28.9336 33.3076C29.1419 33.1546 29.3128 32.9902 29.4463 32.8145C29.583 32.6354 29.6514 32.4255 29.6514 32.1846C29.6514 31.9535 29.5684 31.7467 29.4023 31.5645C29.2363 31.3822 28.9971 31.291 28.6846 31.291C28.4567 31.291 28.2646 31.3415 28.1084 31.4424C27.9521 31.54 27.835 31.6735 27.7568 31.8428C27.6787 32.0088 27.6396 32.1911 27.6396 32.3896C27.6396 32.5459 27.6706 32.7087 27.7324 32.8779C27.7975 33.0439 27.8887 33.2181 28.0059 33.4004C28.1263 33.5794 28.2712 33.7682 28.4404 33.9668L31.8975 38H31.1943L28.25 34.5771C28.0091 34.2972 27.7975 34.0384 27.6152 33.8008C27.4362 33.5632 27.2979 33.332 27.2002 33.1074C27.1025 32.8828 27.0537 32.6501 27.0537 32.4092C27.0537 32.0739 27.1204 31.7858 27.2539 31.5449C27.3874 31.304 27.5762 31.1185 27.8203 30.9883C28.0645 30.8548 28.3525 30.7881 28.6846 30.7881C29.0036 30.7881 29.2754 30.8532 29.5 30.9834C29.7279 31.1104 29.902 31.2796 30.0225 31.4912C30.1429 31.6995 30.2031 31.9307 30.2031 32.1846C30.2031 32.3962 30.1559 32.5931 30.0615 32.7754C29.9704 32.9577 29.8516 33.1237 29.7051 33.2734C29.5618 33.4199 29.4105 33.555 29.251 33.6787L27.9521 34.6797C27.6722 34.9043 27.4639 35.111 27.3271 35.2998C27.1937 35.4886 27.1058 35.6562 27.0635 35.8027C27.0212 35.9492 27 36.0762 27 36.1836C27 36.4342 27.0586 36.667 27.1758 36.8818C27.293 37.0967 27.472 37.2692 27.7129 37.3994C27.9538 37.5296 28.2565 37.5947 28.6211 37.5947C28.9271 37.5947 29.2233 37.5296 29.5098 37.3994C29.7962 37.266 30.0518 37.0771 30.2764 36.833C30.5042 36.5856 30.6833 36.2926 30.8135 35.9541C30.9469 35.6123 31.0137 35.2331 31.0137 34.8164H31.5508C31.5508 35.1257 31.5199 35.4154 31.458 35.6855C31.3994 35.9557 31.3115 36.2048 31.1943 36.4326C31.0771 36.6605 30.9323 36.8704 30.7598 37.0625C30.7337 37.0951 30.7158 37.1211 30.7061 37.1406C30.6995 37.1602 30.6833 37.1829 30.6572 37.209C30.3968 37.4824 30.0908 37.6989 29.7393 37.8584C29.3877 38.0179 29.015 38.0977 28.6211 38.0977C28.1686 38.0977 27.7764 38.0179 27.4443 37.8584C27.1156 37.6989 26.8617 37.4759 26.6826 37.1895C26.5068 36.8997 26.4189 36.5645 26.4189 36.1836C26.4189 35.9004 26.4792 35.6432 26.5996 35.4121C26.7201 35.181 26.8844 34.9645 27.0928 34.7627C27.3011 34.5609 27.5339 34.3623 27.791 34.167ZM40.1641 34.0791V34.5918H35.8428V34.0791H40.1641ZM35.9844 30.8906V38H35.3838V30.8906H35.9844ZM40.6475 30.8906V38H40.0469V30.8906H40.6475ZM42.0049 35.4414V35.2803C42.0049 34.8962 42.0602 34.5413 42.1709 34.2158C42.2816 33.8903 42.4395 33.6087 42.6445 33.3711C42.8529 33.1335 43.1019 32.9495 43.3916 32.8193C43.6813 32.6859 44.0036 32.6191 44.3584 32.6191C44.7165 32.6191 45.0404 32.6859 45.3301 32.8193C45.6198 32.9495 45.8688 33.1335 46.0771 33.3711C46.2855 33.6087 46.445 33.8903 46.5557 34.2158C46.6663 34.5413 46.7217 34.8962 46.7217 35.2803V35.4414C46.7217 35.8255 46.6663 36.1803 46.5557 36.5059C46.445 36.8281 46.2855 37.1081 46.0771 37.3457C45.8721 37.5833 45.6247 37.7689 45.335 37.9023C45.0452 38.0326 44.723 38.0977 44.3682 38.0977C44.0101 38.0977 43.6862 38.0326 43.3965 37.9023C43.1068 37.7689 42.8577 37.5833 42.6494 37.3457C42.4411 37.1081 42.2816 36.8281 42.1709 36.5059C42.0602 36.1803 42.0049 35.8255 42.0049 35.4414ZM42.5859 35.2803V35.4414C42.5859 35.7311 42.625 36.0062 42.7031 36.2666C42.7812 36.5238 42.8952 36.7533 43.0449 36.9551C43.1947 37.1536 43.3802 37.3099 43.6016 37.4238C43.8229 37.5378 44.0785 37.5947 44.3682 37.5947C44.6546 37.5947 44.9069 37.5378 45.125 37.4238C45.3464 37.3099 45.5319 37.1536 45.6816 36.9551C45.8314 36.7533 45.9437 36.5238 46.0186 36.2666C46.0967 36.0062 46.1357 35.7311 46.1357 35.4414V35.2803C46.1357 34.9938 46.0967 34.722 46.0186 34.4648C45.9437 34.2077 45.8298 33.9782 45.6768 33.7764C45.527 33.5745 45.3415 33.415 45.1201 33.2979C44.8988 33.1807 44.6449 33.1221 44.3584 33.1221C44.0719 33.1221 43.818 33.1807 43.5967 33.2979C43.3786 33.415 43.193 33.5745 43.04 33.7764C42.8903 33.9782 42.7764 34.2077 42.6982 34.4648C42.6234 34.722 42.5859 34.9938 42.5859 35.2803ZM49.9297 32.7168V33.1953H47.2832V32.7168H49.9297ZM48.2549 31.3594H48.8359V36.7158C48.8359 36.96 48.8685 37.1439 48.9336 37.2676C48.9987 37.3913 49.0833 37.4743 49.1875 37.5166C49.2917 37.5589 49.404 37.5801 49.5244 37.5801C49.6123 37.5801 49.6969 37.5752 49.7783 37.5654C49.8597 37.5524 49.9329 37.5394 49.998 37.5264L50.0225 38.0195C49.9508 38.0423 49.8581 38.0602 49.7441 38.0732C49.6302 38.0895 49.5163 38.0977 49.4023 38.0977C49.1777 38.0977 48.9792 38.057 48.8066 37.9756C48.6341 37.891 48.499 37.7477 48.4014 37.5459C48.3037 37.3408 48.2549 37.0625 48.2549 36.7109V31.3594Z" fill="white"/>
<path d="M34.0617 8C34.2904 6.69523 33.2863 5.5 31.9617 5.5H21.0379C19.7132 5.5 18.7092 6.69523 18.9378 8" stroke="white" stroke-width="0.727273"/>
<path d="M31.9999 5.5C32.0283 5.24092 32.0425 5.11135 32.0427 5.00435C32.045 3.98072 31.2739 3.12064 30.2561 3.01142C30.1497 3 30.0194 3 29.7588 3H23.241C22.9803 3 22.85 3 22.7436 3.01142C21.7258 3.12064 20.9548 3.98072 20.957 5.00434C20.9573 5.11135 20.9715 5.2409 20.9998 5.5" stroke="white" stroke-width="0.727273"/>
<path d="M29.0812 14.6159C29.6396 14.9621 29.6396 15.8582 29.0812 16.2044L25.7096 18.2945C25.1669 18.6309 24.5 18.1931 24.5 17.5003V13.32C24.5 12.6273 25.1669 12.1894 25.7096 12.5258L29.0812 14.6159Z" stroke="white" stroke-width="0.727273"/>
<path d="M16.8835 14.793C16.4375 11.6294 16.2145 10.0477 17.1623 9.02383C18.1102 8 19.7976 8 23.1724 8H29.8276C33.2024 8 34.8898 8 35.8377 9.02383C36.7855 10.0477 36.5625 11.6294 36.1165 14.793L35.6935 17.793C35.3437 20.2739 35.1689 21.5143 34.2717 22.2572C33.3745 23 32.0512 23 29.4046 23H23.5954C20.9488 23 19.6255 23 18.7283 22.2572C17.8312 21.5143 17.6563 20.2739 17.3065 17.793L16.8835 14.793Z" stroke="white" stroke-width="0.727273"/>
</g>
</g>
<defs>
<clipPath id="clip0_521_4031">
<rect width="52" height="39" fill="white" transform="translate(0.5)"/>
</clipPath>
<clipPath id="clip1_521_4031">
<rect width="52" height="39" fill="white" transform="translate(0.5 3)"/>
</clipPath>
</defs>
</svg>
