<svg width="52" height="39" viewBox="0 0 52 39" fill="none" xmlns="http://www.w3.org/2000/svg">
<g clip-path="url(#clip0_715_2538)">
<g clip-path="url(#clip1_715_2538)">
<path d="M7.69922 35.7832H8.2998C8.25098 36.2617 8.11914 36.6751 7.9043 37.0234C7.68945 37.3685 7.39648 37.6338 7.02539 37.8193C6.6543 38.0049 6.20671 38.0977 5.68262 38.0977C5.27897 38.0977 4.91276 38.0212 4.58398 37.8682C4.25846 37.7152 3.97852 37.4987 3.74414 37.2188C3.50977 36.9355 3.3291 36.597 3.20215 36.2031C3.0752 35.8092 3.01172 35.3714 3.01172 34.8896V34.001C3.01172 33.5192 3.0752 33.083 3.20215 32.6924C3.3291 32.2985 3.51139 31.96 3.74902 31.6768C3.98665 31.3936 4.27148 31.1755 4.60352 31.0225C4.93555 30.8695 5.3099 30.793 5.72656 30.793C6.23112 30.793 6.66732 30.8857 7.03516 31.0713C7.40299 31.2536 7.69271 31.5173 7.9043 31.8623C8.11914 32.2074 8.25098 32.624 8.2998 33.1123H7.69922C7.65365 32.7282 7.55273 32.4027 7.39648 32.1357C7.24023 31.8688 7.02376 31.6654 6.74707 31.5254C6.47363 31.3822 6.13346 31.3105 5.72656 31.3105C5.39453 31.3105 5.09831 31.374 4.83789 31.501C4.57747 31.6279 4.35612 31.8102 4.17383 32.0479C3.99154 32.2822 3.85156 32.5638 3.75391 32.8926C3.65951 33.2214 3.6123 33.5876 3.6123 33.9912V34.8896C3.6123 35.2803 3.65788 35.64 3.74902 35.9688C3.84017 36.2975 3.97363 36.5824 4.14941 36.8232C4.32845 37.0641 4.54655 37.2513 4.80371 37.3848C5.06087 37.5182 5.35384 37.585 5.68262 37.585C6.10254 37.585 6.45247 37.5182 6.73242 37.3848C7.01562 37.248 7.23535 37.0462 7.3916 36.7793C7.54785 36.5124 7.65039 36.1803 7.69922 35.7832ZM12.8408 37.0527V34.3281C12.8408 34.0775 12.7887 33.861 12.6846 33.6787C12.5804 33.4964 12.4274 33.3564 12.2256 33.2588C12.0238 33.1611 11.7747 33.1123 11.4785 33.1123C11.2051 33.1123 10.9609 33.1611 10.7461 33.2588C10.5345 33.3532 10.3669 33.4818 10.2432 33.6445C10.1227 33.804 10.0625 33.9814 10.0625 34.1768L9.47656 34.1719C9.47656 33.9733 9.52539 33.7812 9.62305 33.5957C9.7207 33.4102 9.85905 33.2441 10.0381 33.0977C10.2171 32.9512 10.4303 32.8356 10.6777 32.751C10.9284 32.6631 11.2035 32.6191 11.5029 32.6191C11.8805 32.6191 12.2126 32.6826 12.499 32.8096C12.7887 32.9365 13.015 33.127 13.1777 33.3809C13.3405 33.6348 13.4219 33.9538 13.4219 34.3379V36.8916C13.4219 37.0739 13.4349 37.2627 13.4609 37.458C13.4902 37.6533 13.5309 37.8145 13.583 37.9414V38H12.9629C12.9238 37.8828 12.8929 37.7363 12.8701 37.5605C12.8506 37.3815 12.8408 37.2122 12.8408 37.0527ZM12.9775 34.9238L12.9873 35.373H11.8398C11.5404 35.373 11.2718 35.4007 11.0342 35.4561C10.7998 35.5081 10.6012 35.5863 10.4385 35.6904C10.2757 35.7913 10.1504 35.9134 10.0625 36.0566C9.97786 36.1999 9.93555 36.3626 9.93555 36.5449C9.93555 36.7337 9.98275 36.9062 10.0771 37.0625C10.1748 37.2188 10.3115 37.3441 10.4873 37.4385C10.6663 37.5296 10.8779 37.5752 11.1221 37.5752C11.4476 37.5752 11.734 37.515 11.9814 37.3945C12.2321 37.2741 12.4388 37.1162 12.6016 36.9209C12.7643 36.7256 12.8734 36.5124 12.9287 36.2812L13.1826 36.6182C13.1403 36.7809 13.0622 36.9486 12.9482 37.1211C12.8376 37.2904 12.6927 37.4499 12.5137 37.5996C12.3346 37.7461 12.123 37.8665 11.8789 37.9609C11.638 38.0521 11.3646 38.0977 11.0586 38.0977C10.7135 38.0977 10.4124 38.0326 10.1553 37.9023C9.90137 37.7721 9.7028 37.5947 9.55957 37.3701C9.4196 37.1423 9.34961 36.8851 9.34961 36.5986C9.34961 36.3382 9.40495 36.1055 9.51562 35.9004C9.6263 35.6921 9.78581 35.5163 9.99414 35.373C10.2057 35.2266 10.4596 35.1159 10.7559 35.041C11.0553 34.9629 11.3906 34.9238 11.7617 34.9238H12.9775ZM16.9863 32.7168V33.1953H14.3398V32.7168H16.9863ZM15.3115 31.3594H15.8926V36.7158C15.8926 36.96 15.9251 37.1439 15.9902 37.2676C16.0553 37.3913 16.14 37.4743 16.2441 37.5166C16.3483 37.5589 16.4606 37.5801 16.5811 37.5801C16.6689 37.5801 16.7536 37.5752 16.835 37.5654C16.9163 37.5524 16.9896 37.5394 17.0547 37.5264L17.0791 38.0195C17.0075 38.0423 16.9147 38.0602 16.8008 38.0732C16.6868 38.0895 16.5729 38.0977 16.459 38.0977C16.2344 38.0977 16.0358 38.057 15.8633 37.9756C15.6908 37.891 15.5557 37.7477 15.458 37.5459C15.3604 37.3408 15.3115 37.0625 15.3115 36.7109V31.3594ZM20.2529 38.0977C19.9079 38.0977 19.5905 38.0342 19.3008 37.9072C19.0143 37.7803 18.7637 37.6012 18.5488 37.3701C18.3372 37.139 18.1729 36.8656 18.0557 36.5498C17.9417 36.2308 17.8848 35.8825 17.8848 35.5049V35.2949C17.8848 34.888 17.945 34.5202 18.0654 34.1914C18.1859 33.8626 18.3519 33.5811 18.5635 33.3467C18.7751 33.1123 19.016 32.9333 19.2861 32.8096C19.5596 32.6826 19.846 32.6191 20.1455 32.6191C20.4808 32.6191 20.7786 32.6794 21.0391 32.7998C21.2995 32.917 21.5176 33.0846 21.6934 33.3027C21.8724 33.5176 22.0075 33.7731 22.0986 34.0693C22.1898 34.3623 22.2354 34.6862 22.2354 35.041V35.3975H18.2363V34.8994H21.6543V34.8311C21.6478 34.5348 21.5876 34.2581 21.4736 34.001C21.363 33.7406 21.1969 33.529 20.9756 33.3662C20.7542 33.2035 20.4775 33.1221 20.1455 33.1221C19.8981 33.1221 19.6702 33.1742 19.4619 33.2783C19.2568 33.3825 19.0794 33.5322 18.9297 33.7275C18.7832 33.9196 18.6693 34.1491 18.5879 34.416C18.5098 34.6797 18.4707 34.9727 18.4707 35.2949V35.5049C18.4707 35.7979 18.513 36.0713 18.5977 36.3252C18.6855 36.5758 18.8092 36.7972 18.9688 36.9893C19.1315 37.1813 19.3236 37.3311 19.5449 37.4385C19.7663 37.5459 20.0104 37.5996 20.2773 37.5996C20.5898 37.5996 20.8665 37.5426 21.1074 37.4287C21.3483 37.3115 21.5648 37.1276 21.7568 36.877L22.123 37.1602C22.0091 37.3294 21.8659 37.4857 21.6934 37.6289C21.5241 37.7721 21.3206 37.8861 21.083 37.9707C20.8454 38.0553 20.5687 38.0977 20.2529 38.0977ZM26.8643 32.7168H27.4062V37.9072C27.4062 38.3662 27.3184 38.7601 27.1426 39.0889C26.9701 39.4176 26.7243 39.6699 26.4053 39.8457C26.0895 40.0215 25.7168 40.1094 25.2871 40.1094C25.069 40.1094 24.8444 40.0752 24.6133 40.0068C24.3854 39.9417 24.1689 39.8408 23.9639 39.7041C23.762 39.5706 23.5895 39.4046 23.4463 39.2061L23.7734 38.8496C23.9883 39.11 24.2178 39.3005 24.4619 39.4209C24.7061 39.5446 24.9697 39.6064 25.2529 39.6064C25.5882 39.6064 25.8714 39.5397 26.1025 39.4062C26.3369 39.2728 26.5143 39.0807 26.6348 38.8301C26.7585 38.5794 26.8203 38.2783 26.8203 37.9268V33.8789L26.8643 32.7168ZM23.1533 35.4121V35.3096C23.1533 34.8994 23.1989 34.5299 23.29 34.2012C23.3844 33.8691 23.5195 33.5859 23.6953 33.3516C23.8711 33.1139 24.0843 32.9333 24.335 32.8096C24.5889 32.6826 24.8753 32.6191 25.1943 32.6191C25.5003 32.6191 25.7721 32.6696 26.0098 32.7705C26.2474 32.8714 26.4525 33.0163 26.625 33.2051C26.7975 33.3939 26.9359 33.6185 27.04 33.8789C27.1475 34.1393 27.2256 34.429 27.2744 34.748V36.0518C27.2354 36.3512 27.1637 36.6263 27.0596 36.877C26.9554 37.1243 26.8171 37.3408 26.6445 37.5264C26.472 37.7087 26.2637 37.8503 26.0195 37.9512C25.7786 38.0488 25.5003 38.0977 25.1846 38.0977C24.8688 38.0977 24.5856 38.0326 24.335 37.9023C24.0843 37.7721 23.8711 37.5882 23.6953 37.3506C23.5195 37.1097 23.3844 36.8249 23.29 36.4961C23.1989 36.1673 23.1533 35.806 23.1533 35.4121ZM23.7393 35.3096V35.4121C23.7393 35.7214 23.7702 36.0078 23.832 36.2715C23.8939 36.5352 23.9883 36.7646 24.1152 36.96C24.2422 37.1553 24.4033 37.3083 24.5986 37.4189C24.7939 37.5296 25.0234 37.585 25.2871 37.585C25.6224 37.585 25.904 37.5215 26.1318 37.3945C26.3597 37.2643 26.5404 37.0934 26.6738 36.8818C26.8073 36.667 26.9049 36.4326 26.9668 36.1787V34.6602C26.931 34.4876 26.8757 34.3118 26.8008 34.1328C26.7292 33.9538 26.6283 33.7894 26.498 33.6396C26.3711 33.4867 26.2083 33.3646 26.0098 33.2734C25.8145 33.179 25.5768 33.1318 25.2969 33.1318C25.0299 33.1318 24.7972 33.1872 24.5986 33.2979C24.4033 33.4085 24.2422 33.5632 24.1152 33.7617C23.9883 33.957 23.8939 34.1865 23.832 34.4502C23.7702 34.7139 23.7393 35.0003 23.7393 35.3096ZM28.6123 35.4414V35.2803C28.6123 34.8962 28.6676 34.5413 28.7783 34.2158C28.889 33.8903 29.0469 33.6087 29.252 33.3711C29.4603 33.1335 29.7093 32.9495 29.999 32.8193C30.2887 32.6859 30.611 32.6191 30.9658 32.6191C31.3239 32.6191 31.6478 32.6859 31.9375 32.8193C32.2272 32.9495 32.4762 33.1335 32.6846 33.3711C32.8929 33.6087 33.0524 33.8903 33.1631 34.2158C33.2738 34.5413 33.3291 34.8962 33.3291 35.2803V35.4414C33.3291 35.8255 33.2738 36.1803 33.1631 36.5059C33.0524 36.8281 32.8929 37.1081 32.6846 37.3457C32.4795 37.5833 32.2321 37.7689 31.9424 37.9023C31.6527 38.0326 31.3304 38.0977 30.9756 38.0977C30.6175 38.0977 30.2936 38.0326 30.0039 37.9023C29.7142 37.7689 29.4652 37.5833 29.2568 37.3457C29.0485 37.1081 28.889 36.8281 28.7783 36.5059C28.6676 36.1803 28.6123 35.8255 28.6123 35.4414ZM29.1934 35.2803V35.4414C29.1934 35.7311 29.2324 36.0062 29.3105 36.2666C29.3887 36.5238 29.5026 36.7533 29.6523 36.9551C29.8021 37.1536 29.9876 37.3099 30.209 37.4238C30.4303 37.5378 30.6859 37.5947 30.9756 37.5947C31.262 37.5947 31.5143 37.5378 31.7324 37.4238C31.9538 37.3099 32.1393 37.1536 32.2891 36.9551C32.4388 36.7533 32.5511 36.5238 32.626 36.2666C32.7041 36.0062 32.7432 35.7311 32.7432 35.4414V35.2803C32.7432 34.9938 32.7041 34.722 32.626 34.4648C32.5511 34.2077 32.4372 33.9782 32.2842 33.7764C32.1344 33.5745 31.9489 33.415 31.7275 33.2979C31.5062 33.1807 31.2523 33.1221 30.9658 33.1221C30.6794 33.1221 30.4255 33.1807 30.2041 33.2979C29.986 33.415 29.8005 33.5745 29.6475 33.7764C29.4977 33.9782 29.3838 34.2077 29.3057 34.4648C29.2308 34.722 29.1934 34.9938 29.1934 35.2803ZM35.1211 33.5908V38H34.54V32.7168H35.1064L35.1211 33.5908ZM36.9912 32.6777L36.9766 33.2148C36.9115 33.2051 36.848 33.1969 36.7861 33.1904C36.7243 33.1839 36.6576 33.1807 36.5859 33.1807C36.332 33.1807 36.109 33.2279 35.917 33.3223C35.7282 33.4134 35.5687 33.542 35.4385 33.708C35.3083 33.8708 35.209 34.0628 35.1406 34.2842C35.0723 34.5023 35.0332 34.7367 35.0234 34.9873L34.8086 35.0703C34.8086 34.7253 34.8444 34.4046 34.916 34.1084C34.9876 33.8122 35.0967 33.5534 35.2432 33.332C35.3929 33.1074 35.5801 32.9333 35.8047 32.8096C36.0326 32.6826 36.2995 32.6191 36.6055 32.6191C36.6803 32.6191 36.7536 32.6257 36.8252 32.6387C36.9001 32.6484 36.9554 32.6615 36.9912 32.6777ZM38.5586 32.7168V38H37.9775V32.7168H38.5586ZM37.875 31.1885C37.875 31.0778 37.9092 30.985 37.9775 30.9102C38.0492 30.832 38.1468 30.793 38.2705 30.793C38.3942 30.793 38.4919 30.832 38.5635 30.9102C38.6383 30.985 38.6758 31.0778 38.6758 31.1885C38.6758 31.2959 38.6383 31.3887 38.5635 31.4668C38.4919 31.5417 38.3942 31.5791 38.2705 31.5791C38.1468 31.5791 38.0492 31.5417 37.9775 31.4668C37.9092 31.3887 37.875 31.2959 37.875 31.1885ZM42.1963 38.0977C41.8512 38.0977 41.5339 38.0342 41.2441 37.9072C40.9577 37.7803 40.707 37.6012 40.4922 37.3701C40.2806 37.139 40.1162 36.8656 39.999 36.5498C39.8851 36.2308 39.8281 35.8825 39.8281 35.5049V35.2949C39.8281 34.888 39.8883 34.5202 40.0088 34.1914C40.1292 33.8626 40.2952 33.5811 40.5068 33.3467C40.7184 33.1123 40.9593 32.9333 41.2295 32.8096C41.5029 32.6826 41.7894 32.6191 42.0889 32.6191C42.4242 32.6191 42.722 32.6794 42.9824 32.7998C43.2428 32.917 43.4609 33.0846 43.6367 33.3027C43.8158 33.5176 43.9508 33.7731 44.042 34.0693C44.1331 34.3623 44.1787 34.6862 44.1787 35.041V35.3975H40.1797V34.8994H43.5977V34.8311C43.5911 34.5348 43.5309 34.2581 43.417 34.001C43.3063 33.7406 43.1403 33.529 42.9189 33.3662C42.6976 33.2035 42.4209 33.1221 42.0889 33.1221C41.8415 33.1221 41.6136 33.1742 41.4053 33.2783C41.2002 33.3825 41.0228 33.5322 40.873 33.7275C40.7266 33.9196 40.6126 34.1491 40.5312 34.416C40.4531 34.6797 40.4141 34.9727 40.4141 35.2949V35.5049C40.4141 35.7979 40.4564 36.0713 40.541 36.3252C40.6289 36.5758 40.7526 36.7972 40.9121 36.9893C41.0749 37.1813 41.2669 37.3311 41.4883 37.4385C41.7096 37.5459 41.9538 37.5996 42.2207 37.5996C42.5332 37.5996 42.8099 37.5426 43.0508 37.4287C43.2917 37.3115 43.5081 37.1276 43.7002 36.877L44.0664 37.1602C43.9525 37.3294 43.8092 37.4857 43.6367 37.6289C43.4674 37.7721 43.264 37.8861 43.0264 37.9707C42.7887 38.0553 42.512 38.0977 42.1963 38.0977ZM48.4951 36.6523C48.4951 36.5091 48.4593 36.3675 48.3877 36.2275C48.3161 36.0876 48.1777 35.959 47.9727 35.8418C47.7708 35.7246 47.473 35.6253 47.0791 35.5439C46.7861 35.4788 46.5241 35.4056 46.293 35.3242C46.0651 35.2428 45.873 35.1452 45.7168 35.0312C45.5605 34.9173 45.4417 34.7806 45.3604 34.6211C45.279 34.4616 45.2383 34.2728 45.2383 34.0547C45.2383 33.8594 45.2806 33.6755 45.3652 33.5029C45.4531 33.3271 45.5768 33.1742 45.7363 33.0439C45.8991 32.9105 46.0944 32.8063 46.3223 32.7314C46.5534 32.6566 46.8122 32.6191 47.0986 32.6191C47.5055 32.6191 47.8538 32.6891 48.1436 32.8291C48.4365 32.9658 48.6595 33.153 48.8125 33.3906C48.9688 33.6283 49.0469 33.8968 49.0469 34.1963H48.4658C48.4658 34.014 48.4121 33.8415 48.3047 33.6787C48.2005 33.516 48.0459 33.3825 47.8408 33.2783C47.639 33.1742 47.3916 33.1221 47.0986 33.1221C46.7959 33.1221 46.5501 33.1676 46.3613 33.2588C46.1725 33.3499 46.0342 33.4655 45.9463 33.6055C45.8617 33.7454 45.8193 33.8903 45.8193 34.04C45.8193 34.1572 45.8372 34.2646 45.873 34.3623C45.9121 34.4567 45.9805 34.5446 46.0781 34.626C46.179 34.7074 46.3223 34.7839 46.5078 34.8555C46.6934 34.9271 46.9342 34.9971 47.2305 35.0654C47.6569 35.1598 48.0052 35.2754 48.2754 35.4121C48.5488 35.5456 48.7507 35.7116 48.8809 35.9102C49.0111 36.1055 49.0762 36.3431 49.0762 36.623C49.0762 36.8411 49.0306 37.0413 48.9395 37.2236C48.8483 37.4027 48.7165 37.5573 48.5439 37.6875C48.3747 37.8177 48.1696 37.9186 47.9287 37.9902C47.6911 38.0618 47.4242 38.0977 47.1279 38.0977C46.682 38.0977 46.3044 38.0244 45.9951 37.8779C45.6891 37.7282 45.4564 37.5329 45.2969 37.292C45.1406 37.0479 45.0625 36.7891 45.0625 36.5156H45.6436C45.6631 36.7891 45.7493 37.0055 45.9023 37.165C46.0553 37.3213 46.2425 37.432 46.4639 37.4971C46.6885 37.5622 46.9098 37.5947 47.1279 37.5947C47.4274 37.5947 47.6781 37.5508 47.8799 37.4629C48.0817 37.375 48.2347 37.2594 48.3389 37.1162C48.443 36.973 48.4951 36.8184 48.4951 36.6523Z" fill="#E50914"/>
<path d="M32.72 4.18701H29.84C28.7796 4.18701 27.92 5.04662 27.92 6.10701V8.98701C27.92 10.0474 28.7796 10.907 29.84 10.907H32.72C33.7805 10.907 34.64 10.0474 34.64 8.98701V6.10701C34.64 5.04662 33.7805 4.18701 32.72 4.18701Z" stroke="#E50914" stroke-linecap="round" stroke-linejoin="round"/>
<path d="M22.1601 4.18701H19.2801C18.2197 4.18701 17.3601 5.04662 17.3601 6.10701V8.98701C17.3601 10.0474 18.2197 10.907 19.2801 10.907H22.1601C23.2205 10.907 24.0801 10.0474 24.0801 8.98701V6.10701C24.0801 5.04662 23.2205 4.18701 22.1601 4.18701Z" stroke="#E50914" stroke-linecap="round" stroke-linejoin="round"/>
<path d="M32.72 14.7476H29.84C28.7796 14.7476 27.92 15.6071 27.92 16.6676V19.5476C27.92 20.608 28.7796 21.4676 29.84 21.4676H32.72C33.7805 21.4676 34.64 20.608 34.64 19.5476V16.6676C34.64 15.6071 33.7805 14.7476 32.72 14.7476Z" stroke="#E50914" stroke-linecap="round" stroke-linejoin="round"/>
<path d="M22.1601 14.7476H19.2801C18.2197 14.7476 17.3601 15.6071 17.3601 16.6676V19.5476C17.3601 20.608 18.2197 21.4676 19.2801 21.4676H22.1601C23.2205 21.4676 24.0801 20.608 24.0801 19.5476V16.6676C24.0801 15.6071 23.2205 14.7476 22.1601 14.7476Z" stroke="#E50914" stroke-linecap="round" stroke-linejoin="round"/>
</g>
</g>
<defs>
<clipPath id="clip0_715_2538">
<rect width="52" height="39" fill="white"/>
</clipPath>
<clipPath id="clip1_715_2538">
<rect width="52" height="39" fill="white" transform="translate(0 3)"/>
</clipPath>
</defs>
</svg>
