<svg width="57" height="49" viewBox="0 0 57 49" fill="none" xmlns="http://www.w3.org/2000/svg">
<path d="M22.0001 31H31.0001" stroke="white" stroke-miterlimit="10" stroke-linecap="round"/>
<path d="M22.0001 28H27.3549" stroke="white" stroke-miterlimit="10" stroke-linecap="round"/>
<path d="M22.0001 38H27.3549" stroke="white" stroke-miterlimit="10" stroke-linecap="round"/>
<path d="M22.0001 35H31.9448" stroke="white" stroke-miterlimit="10" stroke-linecap="round"/>
<path d="M32.0001 48L50.0001 48" stroke="white" stroke-miterlimit="10" stroke-linecap="round"/>
<path d="M52.0001 48L53.0001 48" stroke="white" stroke-miterlimit="10" stroke-linecap="round"/>
<path d="M32.0001 6L14.0001 6" stroke="white" stroke-miterlimit="10" stroke-linecap="round"/>
<path d="M12.0001 6L11.0001 6" stroke="white" stroke-miterlimit="10" stroke-linecap="round"/>
<path d="M54.1668 10H2.83346C1.82093 10 1.00012 10.7582 1.00012 11.6935V43.3065C1.00012 44.2418 1.82093 45 2.83346 45H54.1668C55.1793 45 56.0001 44.2418 56.0001 43.3065V11.6935C56.0001 10.7582 55.1793 10 54.1668 10Z" stroke="white" stroke-miterlimit="10"/>
<rect x="5.25012" y="14.25" width="29.5" height="7.5" rx="0.75" fill="#FF9F00" stroke="white" stroke-width="0.5"/>
<path d="M12.8394 27C11.4426 27 10.1033 27.4179 8.97115 28.1932L9.09603 27.802C9.1795 27.5404 9.03514 27.2607 8.77358 27.1773C8.51215 27.0937 8.2323 27.2382 8.1489 27.4997L7.49718 29.5421C7.44621 29.7017 7.47914 29.8762 7.58468 30.0064C7.67962 30.1235 7.82174 30.1903 7.97069 30.1903C7.98731 30.1903 8.00411 30.1894 8.02085 30.1878L10.1538 29.9715C10.4269 29.9438 10.6259 29.6999 10.5983 29.4268C10.5706 29.1536 10.3267 28.9552 10.0536 28.9823L9.49922 29.0385C10.4742 28.361 11.6313 27.9942 12.8395 27.9942C16.0739 27.9942 18.7054 30.6256 18.7054 33.8601C18.7054 37.062 16.1266 39.6725 12.9368 39.7247C12.9369 39.7244 12.9369 39.7239 12.9371 39.7236C12.8266 39.7256 12.7161 39.7257 12.6064 39.7215C12.333 39.7105 12.101 39.9245 12.0903 40.1989C12.0795 40.4732 12.2933 40.7042 12.5676 40.715C12.6577 40.7185 12.7491 40.7202 12.8395 40.7202C16.6222 40.7202 19.6996 37.6428 19.6996 33.8601C19.6996 30.0775 16.622 27 12.8394 27Z" fill="white"/>
<path d="M6.52365 31.1777C6.37972 31.5161 6.2624 31.8689 6.17509 32.2263C6.10992 32.4929 6.27325 32.762 6.53996 32.8272C6.57958 32.8369 6.61926 32.8415 6.65839 32.8415C6.88218 32.8415 7.08539 32.6894 7.14095 32.4623C7.21555 32.1572 7.31569 31.8559 7.43859 31.5668C7.54605 31.3141 7.4283 31.0222 7.17567 30.9148C6.92299 30.8073 6.63111 30.9251 6.52365 31.1777Z" fill="white"/>
<path d="M7.14391 35.2703C7.06888 34.966 7.01803 34.6527 6.99273 34.339C6.97065 34.0654 6.73136 33.8615 6.45728 33.8835C6.18363 33.9055 5.97968 34.1452 6.00176 34.4189C6.03134 34.7858 6.09086 35.1523 6.17867 35.5084C6.23454 35.7351 6.43756 35.8866 6.66092 35.8866C6.70029 35.8866 6.74041 35.8819 6.78035 35.872C7.0468 35.8062 7.20957 35.5369 7.14391 35.2703Z" fill="white"/>
<path d="M10.7625 39.3478C10.4691 39.2367 10.1821 39.1006 9.9098 38.9432C9.67206 38.8059 9.36803 38.8873 9.23068 39.125C9.09333 39.3627 9.17481 39.6668 9.41249 39.8041C9.73122 39.9882 10.067 40.1475 10.4105 40.2776C10.4684 40.2995 10.5278 40.3099 10.5864 40.3099C10.7871 40.3099 10.9761 40.1875 11.0514 39.9887C11.1486 39.7319 11.0193 39.445 10.7625 39.3478Z" fill="white"/>
<path d="M7.88317 36.9993C7.73602 36.7674 7.42889 36.6989 7.19703 36.8461C6.96524 36.9932 6.89666 37.3004 7.04381 37.5322C7.2405 37.8421 7.46398 38.1385 7.70793 38.4132C7.80615 38.5239 7.9427 38.5803 8.07986 38.5803C8.19724 38.5803 8.315 38.539 8.40975 38.455C8.61506 38.2727 8.63373 37.9585 8.45142 37.7532C8.2427 37.518 8.05152 37.2644 7.88317 36.9993Z" fill="white"/>
<path d="M11.2154 35.3515C11.2154 35.077 10.9929 34.8544 10.7183 34.8544C10.4438 34.8544 10.2212 35.077 10.2212 35.3515C10.2212 36.188 11.104 36.8419 12.3422 36.9808V37.0417C12.3422 37.3162 12.5648 37.5388 12.8393 37.5388C13.1139 37.5388 13.3365 37.3162 13.3365 37.0417V36.9808C14.5747 36.8419 15.4575 36.1879 15.4575 35.3515C15.4575 34.1855 14.2925 33.7437 13.3365 33.4782V31.7436C14.0453 31.8526 14.4632 32.1767 14.4632 32.3689C14.4632 32.6434 14.6858 32.866 14.9604 32.866C15.2349 32.866 15.4575 32.6435 15.4575 32.3689C15.4575 31.5325 14.5747 30.8786 13.3365 30.7397V30.6788C13.3365 30.4043 13.1139 30.1816 12.8393 30.1816C12.5648 30.1816 12.3422 30.4042 12.3422 30.6788V30.7397C11.104 30.8786 10.2212 31.5325 10.2212 32.3689C10.2212 33.535 11.3862 33.9767 12.3422 34.2422V35.9768C11.6334 35.8678 11.2154 35.5438 11.2154 35.3515ZM14.4632 35.3515C14.4632 35.5438 14.0452 35.8678 13.3364 35.9768V34.5177C14.1656 34.7784 14.4632 35.0112 14.4632 35.3515ZM11.2154 32.3689C11.2154 32.1767 11.6334 31.8526 12.3422 31.7436V33.2027C11.513 32.9419 11.2154 32.7092 11.2154 32.3689Z" fill="white"/>
<rect x="39.0001" y="6" width="11" height="7" fill="#030303"/>
<path d="M36.5001 1V6" stroke="white" stroke-miterlimit="10" stroke-linecap="round"/>
<path d="M39.0001 3.5H34.0001" stroke="white" stroke-miterlimit="10" stroke-linecap="round"/>
<path d="M41.7133 5.96415C42.1072 5.96415 42.4266 5.75127 42.4266 5.48867C42.4266 5.22606 42.1072 5.01318 41.7133 5.01318C41.3194 5.01318 41.0001 5.22606 41.0001 5.48867C41.0001 5.75127 41.3194 5.96415 41.7133 5.96415Z" fill="#B8B9BA"/>
<path d="M47.0002 18.502H41.2944V20.6416H47.0002V18.502Z" fill="#3EC3FE"/>
<path d="M41.2944 30.6302V27.7743V25.3969V22.0715V20.6421H47.0002V22.0715V25.3969V30.6302V34.6688H41.2944V30.6302Z" fill="#3EC3FE"/>
<path d="M47 34.6689L44.8292 37.9736C44.7044 38.1637 43.5855 38.1637 43.4607 37.9736L41.2898 34.6689" stroke="white" stroke-width="0.713224" stroke-miterlimit="10" stroke-linecap="round"/>
<path d="M47.0002 14.4606V18.5052H41.2944V14.4606V6.38037H46.6436H47.0002V14.4606Z" fill="#3EC3FE"/>
<path opacity="0.8" d="M45.5001 7.03711V35.0371H47.0001V7.90533C47.0001 7.67506 46.8421 7.45423 46.5608 7.2914C46.2795 7.12858 45.8979 7.03711 45.5001 7.03711Z" fill="#3EC3FE"/>
<path d="M47.0003 6.85303H41.6511" stroke="#515F76" stroke-width="0.713224" stroke-miterlimit="10" stroke-linecap="round"/>
<path d="M47.0002 20.6421H41.2944" stroke="#030303" stroke-width="0.713224" stroke-miterlimit="10"/>
<path d="M41.2944 18.2646H47.0002" stroke="#030303" stroke-width="0.713224" stroke-miterlimit="10"/>
<path d="M47.0002 34.6686H41.2944V5.42645C41.2944 5.04813 41.5199 4.68531 41.9211 4.4178C42.3224 4.15029 42.8666 4 43.4341 4H44.8606C45.428 4 45.9723 4.15029 46.3735 4.4178C46.7748 4.68531 47.0002 5.04813 47.0002 5.42645V34.6686Z" stroke="white" stroke-width="0.713224" stroke-linecap="round" stroke-linejoin="round"/>
</svg>
