<svg width="57" height="61" viewBox="0 0 57 61" fill="none" xmlns="http://www.w3.org/2000/svg">
<path d="M38.0938 60.3205H14.9062C13.4596 60.3205 12.2732 59.1341 12.2732 57.6875V11.3125C12.2732 9.8659 13.4596 8.67949 14.9062 8.67949H38.0938C39.5404 8.67949 40.7268 9.8659 40.7268 11.3125V57.6875C40.7268 59.1341 39.5404 60.3205 38.0938 60.3205Z" stroke="white" stroke-opacity="0.8" stroke-width="1.35897"/>
<path d="M26.5181 59.2973C25.2246 59.2973 24.1729 58.244 24.1729 56.9504C24.1729 55.6569 25.2246 54.6035 26.5181 54.6035C27.8116 54.6035 28.865 55.6569 28.865 56.9504C28.865 58.244 27.8116 59.2973 26.5181 59.2973ZM26.5181 55.4316C25.6817 55.4316 25.001 56.1124 25.001 56.9504C25.001 57.7885 25.6817 58.4692 26.5181 58.4692C27.3562 58.4692 28.0369 57.7885 28.0369 56.9504C28.0369 56.1124 27.3562 55.4316 26.5181 55.4316Z" fill="#D6D6D6"/>
<path d="M26.5166 11.4286C26.962 11.4286 27.3231 11.0675 27.3231 10.622C27.3231 10.1766 26.962 9.81543 26.5166 9.81543C26.0711 9.81543 25.71 10.1766 25.71 10.622C25.71 11.0675 26.0711 11.4286 26.5166 11.4286Z" fill="#D6D6D6"/>
<path d="M32.3813 11.4286C32.8268 11.4286 33.1879 11.0675 33.1879 10.622C33.1879 10.1766 32.8268 9.81543 32.3813 9.81543C31.9358 9.81543 31.5747 10.1766 31.5747 10.622C31.5747 11.0675 31.9358 11.4286 32.3813 11.4286Z" fill="#D6D6D6"/>
<path d="M34.9304 11.4286C35.3758 11.4286 35.737 11.0675 35.737 10.622C35.737 10.1766 35.3758 9.81543 34.9304 9.81543C34.4849 9.81543 34.1238 10.1766 34.1238 10.622C34.1238 11.0675 34.4849 11.4286 34.9304 11.4286Z" fill="#D6D6D6"/>
<mask id="path-6-outside-1_17_3863" maskUnits="userSpaceOnUse" x="20.8447" y="25.8618" width="31" height="20" fill="black">
<rect fill="white" x="20.8447" y="25.8618" width="31" height="20"/>
<path fill-rule="evenodd" clip-rule="evenodd" d="M22.8447 35.9826L34.1561 28.1034L34.1561 32.6723L50.2585 32.6723L50.2585 39.0688L34.1561 39.0688L34.1561 43.8618L22.8447 35.9826Z"/>
</mask>
<path fill-rule="evenodd" clip-rule="evenodd" d="M22.8447 35.9826L34.1561 28.1034L34.1561 32.6723L50.2585 32.6723L50.2585 39.0688L34.1561 39.0688L34.1561 43.8618L22.8447 35.9826Z" fill="#E50914"/>
<path d="M34.1561 28.1034L35.1561 28.1034L35.1561 26.1881L33.5845 27.2828L34.1561 28.1034ZM22.8447 35.9826L22.2732 35.162L21.0952 35.9826L22.2732 36.8031L22.8447 35.9826ZM34.1561 32.6723L33.1561 32.6723L33.1561 33.6723L34.1561 33.6723L34.1561 32.6723ZM50.2585 32.6723L51.2585 32.6723L51.2585 31.6723L50.2585 31.6723L50.2585 32.6723ZM50.2585 39.0688L50.2585 40.0688L51.2585 40.0688L51.2585 39.0688L50.2585 39.0688ZM34.1561 39.0688L34.1561 38.0688L33.1561 38.0688L33.1561 39.0688L34.1561 39.0688ZM34.1561 43.8618L33.5845 44.6824L35.1561 45.7771L35.1561 43.8618L34.1561 43.8618ZM33.5845 27.2828L22.2732 35.162L23.4163 36.8031L34.7276 28.9239L33.5845 27.2828ZM35.1561 32.6723L35.1561 28.1034L33.1561 28.1034L33.1561 32.6723L35.1561 32.6723ZM50.2585 31.6723L34.1561 31.6723L34.1561 33.6723L50.2585 33.6723L50.2585 31.6723ZM51.2585 39.0688L51.2585 32.6723L49.2585 32.6723L49.2585 39.0688L51.2585 39.0688ZM34.1561 40.0688L50.2585 40.0688L50.2585 38.0688L34.1561 38.0688L34.1561 40.0688ZM35.1561 43.8618L35.1561 39.0688L33.1561 39.0688L33.1561 43.8618L35.1561 43.8618ZM22.2732 36.8031L33.5845 44.6824L34.7276 43.0413L23.4163 35.162L22.2732 36.8031Z" fill="white" fill-opacity="0.8" mask="url(#path-6-outside-1_17_3863)"/>
<line x1="11.8794" y1="13.717" x2="41.1208" y2="13.717" stroke="white" stroke-opacity="0.8" stroke-width="1.35897"/>
<line x1="11.8794" y1="53.01" x2="41.1208" y2="53.01" stroke="white" stroke-opacity="0.8" stroke-width="1.35897"/>
<path d="M7 14L7 39" stroke="white" stroke-opacity="0.8" stroke-linecap="round"/>
<path d="M44 57L44 44" stroke="white" stroke-opacity="0.8" stroke-linecap="round"/>
<path d="M7 41L7 42" stroke="white" stroke-opacity="0.8" stroke-linecap="round"/>
<path d="M44 42L44 41" stroke="white" stroke-opacity="0.8" stroke-linecap="round"/>
<path d="M47.5 17V22" stroke="white" stroke-opacity="0.8" stroke-miterlimit="10" stroke-linecap="round"/>
<path d="M50 19.5H45" stroke="white" stroke-opacity="0.8" stroke-miterlimit="10" stroke-linecap="round"/>
<path d="M43.5 3V8" stroke="white" stroke-opacity="0.8" stroke-miterlimit="10" stroke-linecap="round"/>
<path d="M46 5.5H41" stroke="white" stroke-opacity="0.8" stroke-miterlimit="10" stroke-linecap="round"/>
</svg>
