<svg width="49" height="49" viewBox="0 0 49 49" fill="none" xmlns="http://www.w3.org/2000/svg">
<g clip-path="url(#clip0_17_3916)">
<path d="M15.9069 42.709H14.27C13.366 42.709 12.6332 43.4418 12.6332 44.3458C12.6332 45.2498 13.366 45.9826 14.27 45.9826H15.9069C16.8109 45.9826 17.5437 45.2498 17.5437 44.3458C17.5437 43.4418 16.8109 42.709 15.9069 42.709Z" fill="white"/>
<path d="M39.4365 30.8423H16.7255V34.5251H39.4365V30.8423Z" fill="#E50914"/>
<path d="M43.9377 24.498H12.0195V28.5901H43.9377V24.498Z" fill="#5AC779"/>
<path d="M15.2932 24.498H12.0195V28.5901H15.2932V24.498Z" fill="#00A085"/>
<path d="M14.2698 5.01009H15.9066C16.3305 5.01009 16.6739 4.66671 16.6739 4.24284C16.6739 3.81897 16.3305 3.47559 15.9066 3.47559H14.2698C13.8459 3.47559 13.5026 3.81897 13.5026 4.24284C13.5026 4.66671 13.8461 5.01009 14.2698 5.01009Z" fill="white"/>
<path d="M42.4029 18.6165H29.9732V4.0385C29.9732 1.92308 28.2523 0.202148 26.1369 0.202148H4.24431C2.12889 0.202148 0.407959 1.92308 0.407959 4.0385V45.1639C0.407959 47.2792 2.12889 49.0001 4.24431 49.0001H26.1369C28.2523 49.0001 29.9732 47.2792 29.9732 45.1638V41.0206H35.7533C36.1772 41.0206 36.5206 40.6772 36.5206 40.2533C36.5206 39.8295 36.1772 39.4861 35.7533 39.4861H13.5537C13.1306 39.4861 12.7865 39.1419 12.7865 38.7188V29.3582H43.1701V38.7188C43.1701 39.1419 42.826 39.4861 42.4029 39.4861H39.6407C39.2168 39.4861 38.8734 39.8295 38.8734 40.2533C38.8734 40.6772 39.2168 41.0206 39.6407 41.0206H42.4029C43.672 41.0206 44.7046 39.9879 44.7046 38.7188V20.9182C44.7047 19.649 43.6722 18.6165 42.4029 18.6165ZM43.1701 20.9182V23.7315H12.7865V20.9182C12.7865 20.4951 13.1306 20.151 13.5537 20.151H42.4029C42.826 20.151 43.1701 20.4951 43.1701 20.9182ZM4.24431 1.73665H26.1369C27.406 1.73665 28.4386 2.76929 28.4386 4.03841V6.03334H10.7917C10.3678 6.03334 10.0244 6.37672 10.0244 6.80059C10.0244 7.22446 10.3678 7.56784 10.7917 7.56784H28.4387V18.6165H13.5537C12.2846 18.6165 11.252 19.6491 11.252 20.9182V38.7187C11.252 38.9877 11.2989 39.2459 11.384 39.486H1.94256V7.56794H6.90419C7.32806 7.56794 7.67144 7.22456 7.67144 6.80069C7.67144 6.37682 7.32806 6.03344 6.90419 6.03344H1.94256V4.0385C1.94256 2.76919 2.97519 1.73665 4.24431 1.73665ZM28.4387 45.1638C28.4387 46.4329 27.4061 47.4655 26.137 47.4655H4.24431C2.97519 47.4655 1.94256 46.4329 1.94256 45.1638V41.0206H28.4387V45.1638ZM12.7865 27.8237V25.2661H43.1701V27.8237H12.7865Z" fill="white" fill-opacity="0.8"/>
<path d="M39.3848 36.9792C39.3848 36.5553 39.0414 36.2119 38.6175 36.2119H28.7965C28.3727 36.2119 28.0293 36.5553 28.0293 36.9792C28.0293 37.403 28.3727 37.7464 28.7965 37.7464H38.6175C39.0414 37.7465 39.3848 37.4029 39.3848 36.9792Z" fill="white"/>
<path d="M34.5255 17.0817C36.1897 17.0817 37.5434 15.728 37.5434 14.0638C37.5434 12.3996 36.1897 11.0459 34.5255 11.0459C32.8613 11.0459 31.5076 12.3996 31.5076 14.0638C31.5076 15.728 32.8615 17.0817 34.5255 17.0817ZM34.5255 12.5804C35.3433 12.5804 36.0089 13.2459 36.0089 14.0638C36.0089 14.8817 35.3433 15.5472 34.5255 15.5472C33.7076 15.5472 33.0421 14.8817 33.0421 14.0638C33.0421 13.2459 33.7076 12.5804 34.5255 12.5804Z" fill="white" fill-opacity="0.8"/>
<path d="M44.5427 4.18921C41.9343 1.54398 38.4537 0.0561777 34.7417 9.57031e-05C34.7378 0 34.7338 0 34.7299 0C34.3115 0 33.9692 0.335918 33.963 0.755672C33.9566 1.17945 34.2949 1.52809 34.7186 1.53441C41.5224 1.63719 47.0575 7.25774 47.0575 14.064C47.0575 14.4878 47.4008 14.8312 47.8247 14.8312C48.2486 14.8312 48.592 14.4878 48.592 14.064C48.5921 10.3444 47.154 6.83751 44.5427 4.18921Z" fill="white" fill-opacity="0.8"/>
<path d="M41.7377 14.0639C41.7377 14.4878 42.0811 14.8312 42.505 14.8312C42.9289 14.8312 43.2722 14.4878 43.2722 14.0639C43.2722 11.7668 42.3882 9.59706 40.7834 7.95441C39.1815 6.31492 37.0387 5.38029 34.7495 5.32239C34.3253 5.31502 33.9738 5.64644 33.963 6.07011C33.9524 6.49379 34.2871 6.84579 34.7107 6.8566C38.6511 6.95604 41.7377 10.1218 41.7377 14.0639Z" fill="white" fill-opacity="0.8"/>
</g>
<defs>
<clipPath id="clip0_17_3916">
<rect width="49" height="49" fill="white"/>
</clipPath>
</defs>
</svg>
